999
dxfrw 0.6.3
  0
SECTION
  2
HEADER
  9
$ACADVER
  1
AC1021
  9
$DWGCODEPAGE
  3
ANSI_1252
  9
$INSBASE
 10
0
 20
0
 30
0
  9
$EXTMIN
 10
-77.81250000000001
 20
-273.125
 30
0
  9
$EXTMAX
 10
323.125
 20
437.8125
 30
0
  9
$LIMMIN
 10
0
 20
0
  9
$LIMMAX
 10
420
 20
297
  9
$ORTHOMODE
 70
    0
  9
$REGENMODE
 70
    1
  9
$FILLMODE
 70
    1
  9
$QTEXTMODE
 70
    0
  9
$MIRRTEXT
 70
    0
  9
$LTSCALE
 40
1
  9
$ATTMODE
 70
    0
  9
$TEXTSIZE
 40
2.5
  9
$TRACEWID
 40
15.68
  9
$TEXTSTYLE
  7
STANDARD
  9
$CLAYER
  8
ENCLOSURE_CHASSIS
  9
$CELTYPE
  6
BYLAYER
  9
$CECOLOR
 62
  256
  9
$CELTSCALE
 40
1
  9
$DISPSILH
 70
    0
  9
$DIMSCALE
 40
2.5
  9
$DIMASZ
 40
2.5
  9
$DIMEXO
 40
0.625
  9
$DIMDLI
 40
3.75
  9
$DIMRND
 40
0
  9
$DIMDLE
 40
0
  9
$DIMEXE
 40
1.25
  9
$DIMTP
 40
0
  9
$DIMTM
 40
0
  9
$DIMTXT
 40
2.5
  9
$DIMCEN
 40
2.5
  9
$DIMTSZ
 40
0
  9
$DIMTOL
 70
    0
  9
$DIMLIM
 70
    0
  9
$DIMTIH
 70
    0
  9
$DIMTOH
 70
    0
  9
$DIMSE1
 70
    0
  9
$DIMSE2
 70
    0
  9
$DIMTAD
 70
    1
  9
$DIMZIN
 70
    8
  9
$DIMBLK
  1

  9
$DIMASO
 70
    1
  9
$DIMSHO
 70
    1
  9
$DIMPOST
  1

  9
$DIMAPOST
  1

  9
$DIMALT
 70
    0
  9
$DIMALTD
 70
    3
  9
$DIMALTF
 40
0.03937
  9
$DIMLFAC
 40
1
  9
$DIMTOFL
 70
    1
  9
$DIMTVP
 40
0
  9
$DIMTIX
 70
    0
  9
$DIMSOXD
 70
    0
  9
$DIMSAH
 70
    0
  9
$DIMBLK1
  1

  9
$DIMBLK2
  1

  9
$DIMSTYLE
  2
STANDARD
  9
$DIMCLRD
 70
    0
  9
$DIMCLRE
 70
    0
  9
$DIMCLRT
 70
    0
  9
$DIMTFAC
 40
1
  9
$DIMGAP
 40
0.625
  9
$DIMJUST
 70
    0
  9
$DIMSD1
 70
    0
  9
$DIMSD2
 70
    0
  9
$DIMTOLJ
 70
    0
  9
$DIMTZIN
 70
    8
  9
$DIMALTZ
 70
    0
  9
$DIMALTTZ
 70
    0
  9
$DIMUPT
 70
    0
  9
$DIMDEC
 70
    2
  9
$DIMTDEC
 70
    2
  9
$DIMALTU
 70
    2
  9
$DIMALTTD
 70
    3
  9
$DIMTXSTY
  7
STANDARD
  9
$DIMAUNIT
 70
    0
  9
$DIMADEC
 70
    0
  9
$DIMALTRND
 40
0
  9
$DIMAZIN
 70
    0
  9
$DIMDSEP
 70
   44
  9
$DIMATFIT
 70
    3
  9
$DIMFRAC
 70
    0
  9
$DIMLDRBLK
  1
STANDARD
  9
$DIMLUNIT
 70
    2
  9
$DIMLWD
 70
   -2
  9
$DIMLWE
 70
   -2
  9
$DIMTMOVE
 70
    0
  9
$DIMFXL
 40
1
  9
$DIMFXLON
 70
    0
  9
$DIMJOGANG
 40
0.7854
  9
$DIMTFILL
 70
    0
  9
$DIMTFILLCLR
 70
    0
  9
$DIMARCSYM
 70
    0
  9
$DIMLTYPE
  6

  9
$DIMLTEX1
  6

  9
$DIMLTEX2
  6

  9
$LUNITS
 70
    2
  9
$LUPREC
 70
    4
  9
$SKETCHINC
 40
1
  9
$FILLETRAD
 40
0
  9
$AUNITS
 70
    0
  9
$AUPREC
 70
    2
  9
$MENU
  1
.
  9
$ELEVATION
 40
0
  9
$PELEVATION
 40
0
  9
$THICKNESS
 40
0
  9
$LIMCHECK
 70
    0
  9
$CHAMFERA
 40
0
  9
$CHAMFERB
 40
0
  9
$CHAMFERC
 40
0
  9
$CHAMFERD
 40
0
  9
$SKPOLY
 70
    0
  9
$USRTIMER
 70
    1
  9
$ANGBASE
 50
0
  9
$ANGDIR
 70
    0
  9
$PDMODE
 70
   34
  9
$PDSIZE
 40
0
  9
$PLINEWID
 40
0
  9
$SPLFRAME
 70
    0
  9
$SPLINETYPE
 70
    2
  9
$SPLINESEGS
 70
    8
  9
$HANDSEED
  5
20000
  9
$SURFTAB1
 70
    6
  9
$SURFTAB2
 70
    6
  9
$SURFTYPE
 70
    6
  9
$SURFU
 70
    6
  9
$SURFV
 70
    6
  9
$UCSBASE
  2

  9
$UCSNAME
  2

  9
$UCSORG
 10
0
 20
0
 30
0
  9
$UCSXDIR
 10
1
 20
0
 30
0
  9
$UCSYDIR
 10
0
 20
1
 30
0
  9
$UCSORTHOREF
  2

  9
$UCSORTHOVIEW
 70
    0
  9
$UCSORGTOP
 10
0
 20
0
 30
0
  9
$UCSORGBOTTOM
 10
0
 20
0
 30
0
  9
$UCSORGLEFT
 10
0
 20
0
 30
0
  9
$UCSORGRIGHT
 10
0
 20
0
 30
0
  9
$UCSORGFRONT
 10
0
 20
0
 30
0
  9
$UCSORGBACK
 10
0
 20
0
 30
0
  9
$PUCSBASE
  2

  9
$PUCSNAME
  2

  9
$PUCSORG
 10
0
 20
0
 30
0
  9
$PUCSXDIR
 10
1
 20
0
 30
0
  9
$PUCSYDIR
 10
0
 20
1
 30
0
  9
$PUCSORTHOREF
  2

  9
$PUCSORTHOVIEW
 70
    0
  9
$PUCSORGTOP
 10
0
 20
0
 30
0
  9
$PUCSORGBOTTOM
 10
0
 20
0
 30
0
  9
$PUCSORGLEFT
 10
0
 20
0
 30
0
  9
$PUCSORGRIGHT
 10
0
 20
0
 30
0
  9
$PUCSORGFRONT
 10
0
 20
0
 30
0
  9
$PUCSORGBACK
 10
0
 20
0
 30
0
  9
$USERI1
 70
    0
  9
$USERI2
 70
    0
  9
$USERI3
 70
    0
  9
$USERI4
 70
    0
  9
$USERI5
 70
    0
  9
$USERR1
 40
0
  9
$USERR2
 40
0
  9
$USERR3
 40
0
  9
$USERR4
 40
0
  9
$USERR5
 40
0
  9
$WORLDVIEW
 70
    1
  9
$SHADEDGE
 70
    3
  9
$SHADEDIF
 70
   70
  9
$TILEMODE
 70
    1
  9
$MAXACTVP
 70
   64
  9
$PINSBASE
 10
0
 20
0
 30
0
  9
$PLIMCHECK
 70
    0
  9
$PEXTMIN
 10
0
 20
0
 30
0
  9
$PEXTMAX
 10
0
 20
0
 30
0
  9
$GRIDMODE
 70
    1
  9
$SNAPSTYLE
 70
    0
  9
$PLIMMIN
 10
0
 20
0
  9
$PLIMMAX
 10
210
 20
297
  9
$UNITMODE
 70
    0
  9
$VISRETAIN
 70
    1
  9
$PLINEGEN
 70
    0
  9
$PSLTSCALE
 70
    1
  9
$TREEDEPTH
 70
 3020
  9
$CMLSTYLE
  2
Standard
  9
$CMLJUST
 70
    0
  9
$CMLSCALE
 40
20
  9
$PROXYGRAPHICS
 70
    1
  9
$MEASUREMENT
 70
    1
  9
$CELWEIGHT
370
   -1
  9
$ENDCAPS
280
    0
  9
$JOINSTYLE
280
    0
  9
$LWDISPLAY
290
    0
  9
$INSUNITS
 70
    4
  9
$HYPERLINKBASE
  1

  9
$STYLESHEET
  1

  9
$XEDIT
290
    1
  9
$CEPSNTYPE
380
    0
  9
$PSTYLEMODE
290
    1
  9
$EXTNAMES
290
    1
  9
$PSVPSCALE
 40
1
  9
$OLESTARTUP
290
    0
  9
$SORTENTS
280
  127
  9
$INDEXCTL
280
    0
  9
$HIDETEXT
280
    1
  9
$XCLIPFRAME
290
    0
  9
$HALOGAP
280
    0
  9
$OBSCOLOR
 70
  257
  9
$OBSLTYPE
280
    0
  9
$INTERSECTIONDISPLAY
280
    0
  9
$INTERSECTIONCOLOR
 70
  257
  9
$DIMASSOC
280
    1
  9
$PROJECTNAME
  1

  9
$CAMERADISPLAY
290
    0
  9
$LENSLENGTH
 40
50
  9
$CAMERAHEIGHT
 40
0
  9
$STEPSPERSEC
 40
2
  9
$STEPSIZE
 40
50
  9
$3DDWFPREC
 40
2
  9
$PSOLWIDTH
 40
5
  9
$PSOLHEIGHT
 40
80
  9
$LOFTANG1
 40
1.570796326794897
  9
$LOFTANG2
 40
1.570796326794897
  9
$LOFTMAG1
 40
0
  9
$LOFTMAG2
 40
0
  9
$LOFTPARAM
 70
    7
  9
$LOFTNORMALS
280
    1
  9
$LATITUDE
 40
1
  9
$LONGITUDE
 40
1
  9
$NORTHDIRECTION
 40
0
  9
$TIMEZONE
 70
-8000
  9
$LIGHTGLYPHDISPLAY
280
    1
  9
$TILEMODELIGHTSYNCH
280
    1
  9
$SOLIDHIST
280
    1
  9
$SHOWHIST
280
    1
  9
$DWFFRAME
280
    2
  9
$DGNFRAME
280
    0
  9
$REALWORLDSCALE
290
    1
  9
$INTERFERECOLOR
 62
    1
  9
$CSHADOW
280
    0
  9
$SHADOWPLANELOCATION
 40
0
  0
ENDSEC
  0
SECTION
  2
CLASSES
  0
ENDSEC
  0
SECTION
  2
TABLES
  0
TABLE
  2
VPORT
  5
8
330
0
100
AcDbSymbolTable
 70
    1
  0
VPORT
  5
31
330
2
100
AcDbSymbolTableRecord
100
AcDbViewportTableRecord
  2
*ACTIVE
 70
    0
 10
0
 20
0
 11
1
 21
1
 12
339.6584323459834
 22
207.4020516094943
 13
0
 23
0
 14
10
 24
10
 15
10
 25
10
 16
0
 26
0
 36
1
 17
0
 27
0
 37
0
 40
639.2391735596974
 41
1.716300940438871
 42
50
 43
0
 44
0
 50
0
 51
0
 71
    0
 72
  100
 73
    1
 74
    3
 75
    0
 76
    1
 77
    0
 78
    0
281
    0
 65
    1
110
0
120
0
130
0
111
1
121
0
131
0
112
0
122
1
132
0
 79
    0
146
0
348
10020
 60
    7
 61
    5
292
1
282
    1
141
0
142
0
 63
  250
421
3358443
  0
ENDTAB
  0
TABLE
  2
LTYPE
  5
5
330
0
100
AcDbSymbolTable
 70
    4
  0
LTYPE
  5
14
330
5
100
AcDbSymbolTableRecord
100
AcDbLinetypeTableRecord
  2
ByBlock
 70
    0
  3

 72
   65
 73
    0
 40
0
  0
LTYPE
  5
15
330
5
100
AcDbSymbolTableRecord
100
AcDbLinetypeTableRecord
  2
ByLayer
 70
    0
  3

 72
   65
 73
    0
 40
0
  0
LTYPE
  5
16
330
5
100
AcDbSymbolTableRecord
100
AcDbLinetypeTableRecord
  2
Continuous
 70
    0
  3
Solid line
 72
   65
 73
    0
 40
0
  0
LTYPE
  5
32
330
5
100
AcDbSymbolTableRecord
100
AcDbLinetypeTableRecord
  2
DOT
 70
    0
  3
Dot . . . . . . . . . . . . . . . . . . . . . .
 72
   65
 73
    2
 40
6.35
 49
0
 74
    0
 49
-6.35
 74
    0
  0
LTYPE
  5
33
330
5
100
AcDbSymbolTableRecord
100
AcDbLinetypeTableRecord
  2
DOTTINY
 70
    0
  3
Dot (.15x) .....................................
 72
   65
 73
    2
 40
0.9525
 49
0
 74
    0
 49
-0.9525
 74
    0
  0
LTYPE
  5
34
330
5
100
AcDbSymbolTableRecord
100
AcDbLinetypeTableRecord
  2
DOT2
 70
    0
  3
Dot (.5x) .....................................
 72
   65
 73
    2
 40
3.175
 49
0
 74
    0
 49
-3.175
 74
    0
  0
LTYPE
  5
35
330
5
100
AcDbSymbolTableRecord
100
AcDbLinetypeTableRecord
  2
DOTX2
 70
    0
  3
Dot (2x) .  .  .  .  .  .  .  .  .  .  .  .  .
 72
   65
 73
    2
 40
12.7
 49
0
 74
    0
 49
-12.7
 74
    0
  0
LTYPE
  5
36
330
5
100
AcDbSymbolTableRecord
100
AcDbLinetypeTableRecord
  2
DASHED
 70
    0
  3
Dashed _ _ _ _ _ _ _ _ _ _ _ _ _ _ _ _ _
 72
   65
 73
    2
 40
19.05
 49
12.7
 74
    0
 49
-6.35
 74
    0
  0
LTYPE
  5
37
330
5
100
AcDbSymbolTableRecord
100
AcDbLinetypeTableRecord
  2
DASHEDTINY
 70
    0
  3
Dashed (.15x) _ _ _ _ _ _ _ _ _ _ _ _ _ _ _ _ _
 72
   65
 73
    2
 40
2.8575
 49
1.905
 74
    0
 49
-0.9525
 74
    0
  0
LTYPE
  5
38
330
5
100
AcDbSymbolTableRecord
100
AcDbLinetypeTableRecord
  2
DASHED2
 70
    0
  3
Dashed (.5x) _ _ _ _ _ _ _ _ _ _ _ _ _ _ _ _ _
 72
   65
 73
    2
 40
9.524999999999999
 49
6.35
 74
    0
 49
-3.175
 74
    0
  0
LTYPE
  5
39
330
5
100
AcDbSymbolTableRecord
100
AcDbLinetypeTableRecord
  2
DASHEDX2
 70
    0
  3
Dashed (2x) ____  ____  ____  ____  ____  ___
 72
   65
 73
    2
 40
38.09999999999999
 49
25.4
 74
    0
 49
-12.7
 74
    0
  0
LTYPE
  5
3A
330
5
100
AcDbSymbolTableRecord
100
AcDbLinetypeTableRecord
  2
DASHDOT
 70
    0
  3
Dash dot __ . __ . __ . __ . __ . __ . __ . __
 72
   65
 73
    4
 40
25.4
 49
12.7
 74
    0
 49
-6.35
 74
    0
 49
0
 74
    0
 49
-6.35
 74
    0
  0
LTYPE
  5
3B
330
5
100
AcDbSymbolTableRecord
100
AcDbLinetypeTableRecord
  2
DASHDOTTINY
 70
    0
  3
Dash dot (.15x) _._._._._._._._._._._._._._._.
 72
   65
 73
    4
 40
3.81
 49
1.905
 74
    0
 49
-0.9525
 74
    0
 49
0
 74
    0
 49
-0.9525
 74
    0
  0
LTYPE
  5
3C
330
5
100
AcDbSymbolTableRecord
100
AcDbLinetypeTableRecord
  2
DASHDOT2
 70
    0
  3
Dash dot (.5x) _._._._._._._._._._._._._._._.
 72
   65
 73
    4
 40
12.7
 49
6.35
 74
    0
 49
-3.175
 74
    0
 49
0
 74
    0
 49
-3.175
 74
    0
  0
LTYPE
  5
3D
330
5
100
AcDbSymbolTableRecord
100
AcDbLinetypeTableRecord
  2
DASHDOTX2
 70
    0
  3
Dash dot (2x) ____  .  ____  .  ____  .  ___
 72
   65
 73
    4
 40
50.8
 49
25.4
 74
    0
 49
-12.7
 74
    0
 49
0
 74
    0
 49
-12.7
 74
    0
  0
LTYPE
  5
3E
330
5
100
AcDbSymbolTableRecord
100
AcDbLinetypeTableRecord
  2
DIVIDE
 70
    0
  3
Divide ____ . . ____ . . ____ . . ____ . . ____
 72
   65
 73
    6
 40
31.75
 49
12.7
 74
    0
 49
-6.35
 74
    0
 49
0
 74
    0
 49
-6.35
 74
    0
 49
0
 74
    0
 49
-6.35
 74
    0
  0
LTYPE
  5
3F
330
5
100
AcDbSymbolTableRecord
100
AcDbLinetypeTableRecord
  2
DIVIDETINY
 70
    0
  3
Divide (.15x) __..__..__..__..__..__..__..__.._
 72
   65
 73
    6
 40
4.7625
 49
1.905
 74
    0
 49
-0.9525
 74
    0
 49
0
 74
    0
 49
-0.9525
 74
    0
 49
0
 74
    0
 49
-0.9525
 74
    0
  0
LTYPE
  5
40
330
5
100
AcDbSymbolTableRecord
100
AcDbLinetypeTableRecord
  2
DIVIDE2
 70
    0
  3
Divide (.5x) __..__..__..__..__..__..__..__.._
 72
   65
 73
    6
 40
15.875
 49
6.35
 74
    0
 49
-3.175
 74
    0
 49
0
 74
    0
 49
-3.175
 74
    0
 49
0
 74
    0
 49
-3.175
 74
    0
  0
LTYPE
  5
41
330
5
100
AcDbSymbolTableRecord
100
AcDbLinetypeTableRecord
  2
DIVIDEX2
 70
    0
  3
Divide (2x) ________  .  .  ________  .  .  _
 72
   65
 73
    6
 40
63.5
 49
25.4
 74
    0
 49
-12.7
 74
    0
 49
0
 74
    0
 49
-12.7
 74
    0
 49
0
 74
    0
 49
-12.7
 74
    0
  0
LTYPE
  5
42
330
5
100
AcDbSymbolTableRecord
100
AcDbLinetypeTableRecord
  2
BORDER
 70
    0
  3
Border __ __ . __ __ . __ __ . __ __ . __ __ .
 72
   65
 73
    6
 40
44.45
 49
12.7
 74
    0
 49
-6.35
 74
    0
 49
12.7
 74
    0
 49
-6.35
 74
    0
 49
0
 74
    0
 49
-6.35
 74
    0
  0
LTYPE
  5
43
330
5
100
AcDbSymbolTableRecord
100
AcDbLinetypeTableRecord
  2
BORDERTINY
 70
    0
  3
Border (.15x) __.__.__.__.__.__.__.__.__.__.__.
 72
   65
 73
    6
 40
6.6675
 49
1.905
 74
    0
 49
-0.9525
 74
    0
 49
1.905
 74
    0
 49
-0.9525
 74
    0
 49
0
 74
    0
 49
-0.9525
 74
    0
  0
LTYPE
  5
44
330
5
100
AcDbSymbolTableRecord
100
AcDbLinetypeTableRecord
  2
BORDER2
 70
    0
  3
Border (.5x) __.__.__.__.__.__.__.__.__.__.__.
 72
   65
 73
    6
 40
22.225
 49
6.35
 74
    0
 49
-3.175
 74
    0
 49
6.35
 74
    0
 49
-3.175
 74
    0
 49
0
 74
    0
 49
-3.175
 74
    0
  0
LTYPE
  5
45
330
5
100
AcDbSymbolTableRecord
100
AcDbLinetypeTableRecord
  2
BORDERX2
 70
    0
  3
Border (2x) ____  ____  .  ____  ____  .  ___
 72
   65
 73
    6
 40
88.89999999999999
 49
25.4
 74
    0
 49
-12.7
 74
    0
 49
25.4
 74
    0
 49
-12.7
 74
    0
 49
0
 74
    0
 49
-12.7
 74
    0
  0
LTYPE
  5
46
330
5
100
AcDbSymbolTableRecord
100
AcDbLinetypeTableRecord
  2
CENTER
 70
    0
  3
Center ____ _ ____ _ ____ _ ____ _ ____ _ ____
 72
   65
 73
    4
 40
50.8
 49
31.75
 74
    0
 49
-6.35
 74
    0
 49
6.35
 74
    0
 49
-6.35
 74
    0
  0
LTYPE
  5
47
330
5
100
AcDbSymbolTableRecord
100
AcDbLinetypeTableRecord
  2
CENTERTINY
 70
    0
  3
Center (.15x) ___ _ ___ _ ___ _ ___ _ ___ _ ___
 72
   65
 73
    4
 40
7.619999999999999
 49
4.7625
 74
    0
 49
-0.9525
 74
    0
 49
0.9525
 74
    0
 49
-0.9525
 74
    0
  0
LTYPE
  5
48
330
5
100
AcDbSymbolTableRecord
100
AcDbLinetypeTableRecord
  2
CENTER2
 70
    0
  3
Center (.5x) ___ _ ___ _ ___ _ ___ _ ___ _ ___
 72
   65
 73
    4
 40
28.575
 49
19.05
 74
    0
 49
-3.175
 74
    0
 49
3.175
 74
    0
 49
-3.175
 74
    0
  0
LTYPE
  5
49
330
5
100
AcDbSymbolTableRecord
100
AcDbLinetypeTableRecord
  2
CENTERX2
 70
    0
  3
Center (2x) ________  __  ________  __  _____
 72
   65
 73
    4
 40
101.6
 49
63.5
 74
    0
 49
-12.7
 74
    0
 49
12.7
 74
    0
 49
-12.7
 74
    0
  0
ENDTAB
  0
TABLE
  2
LAYER
  5
2
330
0
100
AcDbSymbolTable
 70
    1
  0
LAYER
  5
10
330
2
100
AcDbSymbolTableRecord
100
AcDbLayerTableRecord
  2
0
 70
    0
 62
    7
  6
CONTINUOUS
370
    0
390
F
  0
LAYER
  5
4A
330
2
100
AcDbSymbolTableRecord
100
AcDbLayerTableRecord
  2
AMP
 70
    0
 62
    4
  6
CONTINUOUS
370
    0
390
F
  0
LAYER
  5
4B
330
2
100
AcDbSymbolTableRecord
100
AcDbLayerTableRecord
  2
COLEMANFILREG
 70
    0
 62
  136
420
32896
  6
CONTINUOUS
370
    0
390
F
  0
LAYER
  5
4C
330
2
100
AcDbSymbolTableRecord
100
AcDbLayerTableRecord
  2
CONNECTORS
 70
    0
 62
    1
  6
CONTINUOUS
370
    0
390
F
  0
LAYER
  5
4D
330
2
100
AcDbSymbolTableRecord
100
AcDbLayerTableRecord
  2
ENCLOSURE_CHASSIS
 70
    0
 62
   56
420
8421376
  6
CONTINUOUS
370
    0
390
F
  0
LAYER
  5
4E
330
2
100
AcDbSymbolTableRecord
100
AcDbLayerTableRecord
  2
FILSUPPLY
 70
    0
 62
    3
  6
CONTINUOUS
370
    0
390
F
  0
LAYER
  5
4F
330
2
100
AcDbSymbolTableRecord
100
AcDbLayerTableRecord
  2
FRONTPLATE
 70
    0
 62
   16
420
8388608
  6
CONTINUOUS
370
    0
390
F
  0
LAYER
  5
50
330
2
100
AcDbSymbolTableRecord
100
AcDbLayerTableRecord
  2
HEATSINK
 70
    0
 62
    2
  6
CONTINUOUS
370
    0
390
F
  0
LAYER
  5
51
330
2
100
AcDbSymbolTableRecord
100
AcDbLayerTableRecord
  2
VOLCTL
 70
    0
 62
    6
  6
CONTINUOUS
370
    0
390
F
  0
ENDTAB
  0
TABLE
  2
STYLE
  5
3
330
0
100
AcDbSymbolTable
 70
    3
  0
STYLE
  5
52
330
2
100
AcDbSymbolTableRecord
100
AcDbTextStyleTableRecord
  2
Standard
 70
    0
 40
0
 41
1
 50
0
 71
    0
 42
1
  3
txt
  4

  0
ENDTAB
  0
TABLE
  2
VIEW
  5
6
330
0
100
AcDbSymbolTable
 70
    0
  0
ENDTAB
  0
TABLE
  2
UCS
  5
7
330
0
100
AcDbSymbolTable
 70
    0
  0
ENDTAB
  0
TABLE
  2
APPID
  5
9
330
0
100
AcDbSymbolTable
 70
    1
  0
APPID
  5
12
330
9
100
AcDbSymbolTableRecord
100
AcDbRegAppTableRecord
  2
ACAD
 70
    0
  0
APPID
  5
53
330
9
100
AcDbSymbolTableRecord
100
AcDbRegAppTableRecord
  2
LibreCad
 70
    0
  0
ENDTAB
  0
TABLE
  2
DIMSTYLE
  5
A
330
0
100
AcDbSymbolTable
 70
    1
100
AcDbDimStyleTable
 71
    1
  0
DIMSTYLE
105
54
330
A
100
AcDbSymbolTableRecord
100
AcDbDimStyleTableRecord
  2
Standard
 70
    0
 40
2.5
 41
2.5
 42
0.625
 43
0.38
 44
1.25
 45
0
 46
0
 47
0
 48
0
 49
1
140
2.5
141
0.09
142
0
143
25.4
144
1
145
0
146
1
147
0.625
148
0
 71
    0
 72
    0
 73
    0
 74
    1
 75
    0
 76
    0
 77
    0
 78
    8
 79
    0
170
    0
171
    2
172
    0
173
    0
174
    0
175
    0
176
    0
177
    0
178
    0
179
    0
271
    2
272
    4
273
    2
274
    2
275
    0
276
    0
277
    2
278
   44
279
    0
280
    0
281
    0
282
    0
283
    1
284
    0
285
    0
286
    0
288
    0
289
    3
340
STANDARD
341

371
   -2
372
   -2
  0
ENDTAB
  0
TABLE
  2
BLOCK_RECORD
  5
1
330
0
100
AcDbSymbolTable
 70
    2
  0
BLOCK_RECORD
  5
1F
330
1
100
AcDbSymbolTableRecord
100
AcDbBlockTableRecord
  2
*Model_Space
 70
    0
280
    1
281
    0
  0
BLOCK_RECORD
  5
1E
330
1
100
AcDbSymbolTableRecord
100
AcDbBlockTableRecord
  2
*Paper_Space
 70
    0
280
    1
281
    0
  0
BLOCK_RECORD
  5
55
330
1
100
AcDbSymbolTableRecord
100
AcDbBlockTableRecord
  2
*D4
 70
    0
280
    1
281
    0
  0
BLOCK_RECORD
  5
58
330
1
100
AcDbSymbolTableRecord
100
AcDbBlockTableRecord
  2
*D12
 70
    0
280
    1
281
    0
  0
BLOCK_RECORD
  5
5B
330
1
100
AcDbSymbolTableRecord
100
AcDbBlockTableRecord
  2
*D3
 70
    0
280
    1
281
    0
  0
BLOCK_RECORD
  5
5E
330
1
100
AcDbSymbolTableRecord
100
AcDbBlockTableRecord
  2
*D13
 70
    0
280
    1
281
    0
  0
BLOCK_RECORD
  5
61
330
1
100
AcDbSymbolTableRecord
100
AcDbBlockTableRecord
  2
*D8
 70
    0
280
    1
281
    0
  0
BLOCK_RECORD
  5
64
330
1
100
AcDbSymbolTableRecord
100
AcDbBlockTableRecord
  2
*D10
 70
    0
280
    1
281
    0
  0
BLOCK_RECORD
  5
67
330
1
100
AcDbSymbolTableRecord
100
AcDbBlockTableRecord
  2
*D1
 70
    0
280
    1
281
    0
  0
BLOCK_RECORD
  5
6A
330
1
100
AcDbSymbolTableRecord
100
AcDbBlockTableRecord
  2
*D7
 70
    0
280
    1
281
    0
  0
BLOCK_RECORD
  5
6D
330
1
100
AcDbSymbolTableRecord
100
AcDbBlockTableRecord
  2
*D17
 70
    0
280
    1
281
    0
  0
BLOCK_RECORD
  5
70
330
1
100
AcDbSymbolTableRecord
100
AcDbBlockTableRecord
  2
*D2
 70
    0
280
    1
281
    0
  0
BLOCK_RECORD
  5
73
330
1
100
AcDbSymbolTableRecord
100
AcDbBlockTableRecord
  2
*D5
 70
    0
280
    1
281
    0
  0
BLOCK_RECORD
  5
76
330
1
100
AcDbSymbolTableRecord
100
AcDbBlockTableRecord
  2
*D11
 70
    0
280
    1
281
    0
  0
BLOCK_RECORD
  5
79
330
1
100
AcDbSymbolTableRecord
100
AcDbBlockTableRecord
  2
*D14
 70
    0
280
    1
281
    0
  0
BLOCK_RECORD
  5
7C
330
1
100
AcDbSymbolTableRecord
100
AcDbBlockTableRecord
  2
*D6
 70
    0
280
    1
281
    0
  0
BLOCK_RECORD
  5
7F
330
1
100
AcDbSymbolTableRecord
100
AcDbBlockTableRecord
  2
*D15
 70
    0
280
    1
281
    0
  0
BLOCK_RECORD
  5
82
330
1
100
AcDbSymbolTableRecord
100
AcDbBlockTableRecord
  2
*D16
 70
    0
280
    1
281
    0
  0
BLOCK_RECORD
  5
85
330
1
100
AcDbSymbolTableRecord
100
AcDbBlockTableRecord
  2
*D9
 70
    0
280
    1
281
    0
  0
ENDTAB
  0
ENDSEC
  0
SECTION
  2
BLOCKS
  0
BLOCK
  5
20
330
1F
100
AcDbEntity
  8
0
100
AcDbBlockBegin
  2
*Model_Space
 70
    0
 10
0
 20
0
 30
0
  3
*Model_Space
  1

  0
ENDBLK
  5
21
330
1F
100
AcDbEntity
  8
0
100
AcDbBlockEnd
  0
BLOCK
  5
1C
330
1B
100
AcDbEntity
  8
0
100
AcDbBlockBegin
  2
*Paper_Space
 70
    0
 10
0
 20
0
 30
0
  3
*Paper_Space
  1

  0
ENDBLK
  5
1D
330
1F
100
AcDbEntity
  8
0
100
AcDbBlockEnd
  0
BLOCK
  5
56
330
55
100
AcDbEntity
  8
0
100
AcDbBlockBegin
  2
*D4
 70
    1
 10
0
 20
0
  3
*D4
  1

  0
LINE
  5
88
100
AcDbEntity
  8
ENCLOSURE_CHASSIS
  6
ByBlock
 62
    0
370
   -2
100
AcDbLine
 10
200
 20
301.5625
 11
200
 21
403.125
  0
LINE
  5
89
100
AcDbEntity
  8
ENCLOSURE_CHASSIS
  6
ByBlock
 62
    0
370
   -2
100
AcDbLine
 10
240
 20
301.5625
 11
240
 21
403.125
  0
LINE
  5
8A
100
AcDbEntity
  8
ENCLOSURE_CHASSIS
  6
ByBlock
 62
    0
370
   -2
100
AcDbLine
 10
200
 20
400
 11
240
 21
400
  0
MTEXT
  5
8B
100
AcDbEntity
  8
ENCLOSURE_CHASSIS
  6
CONTINUOUS
 62
    0
370
   -2
100
AcDbMText
 10
220
 20
404.6875
 30
0
 40
6.25
 41
8.333333333333332
 71
    5
 72
    1
  1
40
  7
STANDARD
210
0
220
0
230
1
 50
0
 73
    2
 44
1
  0
SOLID
  5
8C
100
AcDbEntity
  8
ENCLOSURE_CHASSIS
  6
ByBlock
 62
    0
370
   -2
100
AcDbTrace
 10
200
 20
400
 30
0
 11
206.25
 21
401.0407116444321
 31
0
 12
206.25
 22
398.9592883555679
 32
0
 13
206.25
 23
398.9592883555679
 33
0
  0
SOLID
  5
8D
100
AcDbEntity
  8
ENCLOSURE_CHASSIS
  6
ByBlock
 62
    0
370
   -2
100
AcDbTrace
 10
240
 20
400
 30
0
 11
233.75
 21
398.9592883555679
 31
0
 12
233.75
 22
401.0407116444321
 32
0
 13
233.75
 23
401.0407116444321
 33
0
  0
ENDBLK
  5
57
330
55
100
AcDbEntity
  8
0
100
AcDbBlockEnd
  0
BLOCK
  5
59
330
58
100
AcDbEntity
  8
0
100
AcDbBlockBegin
  2
*D12
 70
    1
 10
0
 20
0
  3
*D12
  1

  0
LINE
  5
8E
100
AcDbEntity
  8
FRONTPLATE
  6
ByBlock
 62
    0
370
   -2
100
AcDbLine
 10
-50
 20
-206.5625
 11
-50.00000000000001
 21
-273.125
  0
LINE
  5
8F
100
AcDbEntity
  8
FRONTPLATE
  6
ByBlock
 62
    0
370
   -2
100
AcDbLine
 10
250
 20
-206.5625
 11
250
 21
-273.125
  0
LINE
  5
90
100
AcDbEntity
  8
FRONTPLATE
  6
ByBlock
 62
    0
370
   -2
100
AcDbLine
 10
-50.00000000000001
 20
-270
 11
250
 21
-270
  0
MTEXT
  5
91
100
AcDbEntity
  8
FRONTPLATE
  6
CONTINUOUS
 62
    0
370
   -2
100
AcDbMText
 10
100
 20
-265.3125
 30
0
 40
6.25
 41
12.50000000000039
 71
    5
 72
    1
  1
300
  7
STANDARD
210
0
220
0
230
1
 50
0
 73
    2
 44
1
  0
SOLID
  5
92
100
AcDbEntity
  8
FRONTPLATE
  6
ByBlock
 62
    0
370
   -2
100
AcDbTrace
 10
-50.00000000000001
 20
-270
 30
0
 11
-43.75000000000001
 21
-268.9592883555679
 31
0
 12
-43.75000000000001
 22
-271.0407116444321
 32
0
 13
-43.75000000000001
 23
-271.0407116444321
 33
0
  0
SOLID
  5
93
100
AcDbEntity
  8
FRONTPLATE
  6
ByBlock
 62
    0
370
   -2
100
AcDbTrace
 10
250
 20
-270
 30
0
 11
243.75
 21
-271.0407116444321
 31
0
 12
243.75
 22
-268.9592883555679
 32
0
 13
243.75
 23
-268.9592883555679
 33
0
  0
ENDBLK
  5
5A
330
58
100
AcDbEntity
  8
0
100
AcDbBlockEnd
  0
BLOCK
  5
5C
330
5B
100
AcDbEntity
  8
0
100
AcDbBlockBegin
  2
*D3
 70
    1
 10
0
 20
0
  3
*D3
  1

  0
LINE
  5
94
100
AcDbEntity
  8
ENCLOSURE_CHASSIS
  6
ByBlock
 62
    0
370
   -2
100
AcDbLine
 10
241.5625
 20
0
 11
323.125
 21
0
  0
LINE
  5
95
100
AcDbEntity
  8
ENCLOSURE_CHASSIS
  6
ByBlock
 62
    0
370
   -2
100
AcDbLine
 10
241.5625
 20
300
 11
323.125
 21
300
  0
LINE
  5
96
100
AcDbEntity
  8
ENCLOSURE_CHASSIS
  6
ByBlock
 62
    0
370
   -2
100
AcDbLine
 10
320
 20
0
 11
320
 21
300
  0
MTEXT
  5
97
100
AcDbEntity
  8
ENCLOSURE_CHASSIS
  6
CONTINUOUS
 62
    0
370
   -2
100
AcDbMText
 10
315.3125
 20
150
 30
0
 40
6.25
 41
12.50000000000039
 71
    5
 72
    1
  1
300
  7
STANDARD
210
0
220
0
230
1
 50
90
 73
    2
 44
1
  0
SOLID
  5
98
100
AcDbEntity
  8
ENCLOSURE_CHASSIS
  6
ByBlock
 62
    0
370
   -2
100
AcDbTrace
 10
320
 20
0
 30
0
 11
318.9592883555679
 21
6.25
 31
0
 12
321.0407116444321
 22
6.25
 32
0
 13
321.0407116444321
 23
6.25
 33
0
  0
SOLID
  5
99
100
AcDbEntity
  8
ENCLOSURE_CHASSIS
  6
ByBlock
 62
    0
370
   -2
100
AcDbTrace
 10
320
 20
300
 30
0
 11
321.0407116444321
 21
293.75
 31
0
 12
318.9592883555679
 22
293.75
 32
0
 13
318.9592883555679
 23
293.75
 33
0
  0
ENDBLK
  5
5D
330
5B
100
AcDbEntity
  8
0
100
AcDbBlockEnd
  0
BLOCK
  5
5F
330
5E
100
AcDbEntity
  8
0
100
AcDbBlockBegin
  2
*D13
 70
    1
 10
0
 20
0
  3
*D13
  1

  0
LINE
  5
9A
100
AcDbEntity
  8
ENCLOSURE_CHASSIS
  6
ByBlock
 62
    0
370
   -2
100
AcDbLine
 10
280
 20
-187.5
 11
280
 21
-215.5
  0
MTEXT
  5
9B
100
AcDbEntity
  8
ENCLOSURE_CHASSIS
  6
CONTINUOUS
 62
    0
370
   -2
100
AcDbMText
 10
275.3125
 20
-201.5
 30
0
 40
6.25
 41
2.777777777778165
 71
    5
 72
    1
  1
3
  7
STANDARD
210
0
220
0
230
1
 50
90
 73
    2
 44
1
  0
SOLID
  5
9C
100
AcDbEntity
  8
ENCLOSURE_CHASSIS
  6
ByBlock
 62
    0
370
   -2
100
AcDbTrace
 10
280
 20
-200
 30
0
 11
278.9592883555679
 21
-193.75
 31
0
 12
281.0407116444321
 22
-193.75
 32
0
 13
281.0407116444321
 23
-193.75
 33
0
  0
SOLID
  5
9D
100
AcDbEntity
  8
ENCLOSURE_CHASSIS
  6
ByBlock
 62
    0
370
   -2
100
AcDbTrace
 10
280
 20
-203
 30
0
 11
281.0407116444321
 21
-209.25
 31
0
 12
278.9592883555679
 22
-209.25
 32
0
 13
278.9592883555679
 23
-209.25
 33
0
  0
LINE
  5
9E
100
AcDbEntity
  8
ENCLOSURE_CHASSIS
  6
ByBlock
 62
    0
370
   -2
100
AcDbLine
 10
211.5625
 20
-200
 11
283.125
 21
-200
  0
LINE
  5
9F
100
AcDbEntity
  8
ENCLOSURE_CHASSIS
  6
ByBlock
 62
    0
370
   -2
100
AcDbLine
 10
208.5625
 20
-203
 11
283.125
 21
-203
  0
ENDBLK
  5
60
330
5E
100
AcDbEntity
  8
0
100
AcDbBlockEnd
  0
BLOCK
  5
62
330
61
100
AcDbEntity
  8
0
100
AcDbBlockBegin
  2
*D8
 70
    1
 10
0
 20
0
  3
*D8
  1

  0
LINE
  5
A0
100
AcDbEntity
  8
ENCLOSURE_CHASSIS
  6
ByBlock
 62
    0
370
   -2
100
AcDbLine
 10
201.5625
 20
-105
 11
283.125
 21
-105
  0
LINE
  5
A1
100
AcDbEntity
  8
ENCLOSURE_CHASSIS
  6
ByBlock
 62
    0
370
   -2
100
AcDbLine
 10
201.5625
 20
-100
 11
283.125
 21
-100
  0
LINE
  5
A2
100
AcDbEntity
  8
ENCLOSURE_CHASSIS
  6
ByBlock
 62
    0
370
   -2
100
AcDbLine
 10
280
 20
-117.5
 11
280
 21
-87.5
  0
MTEXT
  5
A3
100
AcDbEntity
  8
ENCLOSURE_CHASSIS
  6
CONTINUOUS
 62
    0
370
   -2
100
AcDbMText
 10
275.3125
 20
-102.5
 30
0
 40
6.25
 41
2.777777777778165
 71
    5
 72
    1
  1
5
  7
STANDARD
210
0
220
0
230
1
 50
90
 73
    2
 44
1
  0
SOLID
  5
A4
100
AcDbEntity
  8
ENCLOSURE_CHASSIS
  6
ByBlock
 62
    0
370
   -2
100
AcDbTrace
 10
280
 20
-105
 30
0
 11
281.0407116444321
 21
-111.25
 31
0
 12
278.9592883555679
 22
-111.25
 32
0
 13
278.9592883555679
 23
-111.25
 33
0
  0
SOLID
  5
A5
100
AcDbEntity
  8
ENCLOSURE_CHASSIS
  6
ByBlock
 62
    0
370
   -2
100
AcDbTrace
 10
280
 20
-100
 30
0
 11
278.9592883555679
 21
-93.75
 31
0
 12
281.0407116444321
 22
-93.75
 32
0
 13
281.0407116444321
 23
-93.75
 33
0
  0
ENDBLK
  5
63
330
61
100
AcDbEntity
  8
0
100
AcDbBlockEnd
  0
BLOCK
  5
65
330
64
100
AcDbEntity
  8
0
100
AcDbBlockBegin
  2
*D10
 70
    1
 10
0
 20
0
  3
*D10
  1

  0
LINE
  5
A6
100
AcDbEntity
  8
ENCLOSURE_CHASSIS
  6
ByBlock
 62
    0
370
   -2
100
AcDbLine
 10
260
 20
-127.5
 11
260
 21
-92.5
  0
MTEXT
  5
A7
100
AcDbEntity
  8
ENCLOSURE_CHASSIS
  6
CONTINUOUS
 62
    0
370
   -2
100
AcDbMText
 10
255.3125
 20
-110
 30
0
 40
6.25
 41
6.25
 71
    5
 72
    1
  1
10
  7
STANDARD
210
0
220
0
230
1
 50
90
 73
    2
 44
1
  0
SOLID
  5
A8
100
AcDbEntity
  8
ENCLOSURE_CHASSIS
  6
ByBlock
 62
    0
370
   -2
100
AcDbTrace
 10
260
 20
-115
 30
0
 11
261.0407116444321
 21
-121.25
 31
0
 12
258.9592883555679
 22
-121.25
 32
0
 13
258.9592883555679
 23
-121.25
 33
0
  0
SOLID
  5
A9
100
AcDbEntity
  8
ENCLOSURE_CHASSIS
  6
ByBlock
 62
    0
370
   -2
100
AcDbTrace
 10
260
 20
-105
 30
0
 11
258.9592883555679
 21
-98.75
 31
0
 12
261.0407116444321
 22
-98.75
 32
0
 13
261.0407116444321
 23
-98.75
 33
0
  0
LINE
  5
AA
100
AcDbEntity
  8
ENCLOSURE_CHASSIS
  6
ByBlock
 62
    0
370
   -2
100
AcDbLine
 10
201.5625
 20
-115
 11
263.125
 21
-115
  0
LINE
  5
AB
100
AcDbEntity
  8
ENCLOSURE_CHASSIS
  6
ByBlock
 62
    0
370
   -2
100
AcDbLine
 10
201.5625
 20
-105
 11
263.125
 21
-105
  0
ENDBLK
  5
66
330
64
100
AcDbEntity
  8
0
100
AcDbBlockEnd
  0
BLOCK
  5
68
330
67
100
AcDbEntity
  8
0
100
AcDbBlockBegin
  2
*D1
 70
    1
 10
0
 20
0
  3
*D1
  1

  0
LINE
  5
AC
100
AcDbEntity
  8
ENCLOSURE_CHASSIS
  6
ByBlock
 62
    0
370
   -2
100
AcDbLine
 10
0
 20
400
 11
200
 21
400
  0
MTEXT
  5
AD
100
AcDbEntity
  8
ENCLOSURE_CHASSIS
  6
CONTINUOUS
 62
    0
370
   -2
100
AcDbMText
 10
100
 20
404.6875
 30
0
 40
6.25
 41
12.5
 71
    5
 72
    1
  1
200
  7
STANDARD
210
0
220
0
230
1
 50
0
 73
    2
 44
1
  0
SOLID
  5
AE
100
AcDbEntity
  8
ENCLOSURE_CHASSIS
  6
ByBlock
 62
    0
370
   -2
100
AcDbTrace
 10
0
 20
400
 30
0
 11
6.25
 21
401.0407116444321
 31
0
 12
6.25
 22
398.9592883555679
 32
0
 13
6.25
 23
398.9592883555679
 33
0
  0
SOLID
  5
AF
100
AcDbEntity
  8
ENCLOSURE_CHASSIS
  6
ByBlock
 62
    0
370
   -2
100
AcDbTrace
 10
200
 20
400
 30
0
 11
193.75
 21
398.9592883555679
 31
0
 12
193.75
 22
401.0407116444321
 32
0
 13
193.75
 23
401.0407116444321
 33
0
  0
LINE
  5
B0
100
AcDbEntity
  8
ENCLOSURE_CHASSIS
  6
ByBlock
 62
    0
370
   -2
100
AcDbLine
 10
9.567553118338697e-17
 20
301.5625
 11
1.913510623667739e-16
 21
403.125
  0
LINE
  5
B1
100
AcDbEntity
  8
ENCLOSURE_CHASSIS
  6
ByBlock
 62
    0
370
   -2
100
AcDbLine
 10
200
 20
301.5625
 11
200
 21
403.125
  0
ENDBLK
  5
69
330
67
100
AcDbEntity
  8
0
100
AcDbBlockEnd
  0
BLOCK
  5
6B
330
6A
100
AcDbEntity
  8
0
100
AcDbBlockBegin
  2
*D7
 70
    1
 10
0
 20
0
  3
*D7
  1

  0
LINE
  5
B2
100
AcDbEntity
  8
ENCLOSURE_CHASSIS
  6
ByBlock
 62
    0
370
   -2
100
AcDbLine
 10
201.5625
 20
-105
 11
283.125
 21
-105
  0
LINE
  5
B3
100
AcDbEntity
  8
ENCLOSURE_CHASSIS
  6
ByBlock
 62
    0
370
   -2
100
AcDbLine
 10
201.5625
 20
-200
 11
283.125
 21
-200
  0
LINE
  5
B4
100
AcDbEntity
  8
ENCLOSURE_CHASSIS
  6
ByBlock
 62
    0
370
   -2
100
AcDbLine
 10
280
 20
-105
 11
280
 21
-200
  0
MTEXT
  5
B5
100
AcDbEntity
  8
ENCLOSURE_CHASSIS
  6
CONTINUOUS
 62
    0
370
   -2
100
AcDbMText
 10
275.3125
 20
-152.5
 30
0
 40
6.25
 41
7.638888888889664
 71
    5
 72
    1
  1
95
  7
STANDARD
210
0
220
0
230
1
 50
90
 73
    2
 44
1
  0
SOLID
  5
B6
100
AcDbEntity
  8
ENCLOSURE_CHASSIS
  6
ByBlock
 62
    0
370
   -2
100
AcDbTrace
 10
280
 20
-105
 30
0
 11
281.0407116444321
 21
-111.25
 31
0
 12
278.9592883555679
 22
-111.25
 32
0
 13
278.9592883555679
 23
-111.25
 33
0
  0
SOLID
  5
B7
100
AcDbEntity
  8
ENCLOSURE_CHASSIS
  6
ByBlock
 62
    0
370
   -2
100
AcDbTrace
 10
280
 20
-200
 30
0
 11
278.9592883555679
 21
-193.75
 31
0
 12
281.0407116444321
 22
-193.75
 32
0
 13
281.0407116444321
 23
-193.75
 33
0
  0
ENDBLK
  5
6C
330
6A
100
AcDbEntity
  8
0
100
AcDbBlockEnd
  0
BLOCK
  5
6E
330
6D
100
AcDbEntity
  8
0
100
AcDbBlockBegin
  2
*D17
 70
    1
 10
0
 20
0
  3
*D17
  1

  0
LINE
  5
B8
100
AcDbEntity
  8
ENCLOSURE_CHASSIS
  6
ByBlock
 62
    0
370
   -2
100
AcDbLine
 10
108
 20
44
 11
108
 21
114
  0
MTEXT
  5
B9
100
AcDbEntity
  8
ENCLOSURE_CHASSIS
  6
CONTINUOUS
 62
    0
370
   -2
100
AcDbMText
 10
103.3125
 20
79
 30
0
 40
6.25
 41
7.638888888888888
 71
    5
 72
    1
  1
70
  7
STANDARD
210
0
220
0
230
1
 50
90
 73
    2
 44
1
  0
SOLID
  5
BA
100
AcDbEntity
  8
ENCLOSURE_CHASSIS
  6
ByBlock
 62
    0
370
   -2
100
AcDbTrace
 10
108
 20
44
 30
0
 11
106.9592883555679
 21
50.25
 31
0
 12
109.0407116444321
 22
50.25
 32
0
 13
109.0407116444321
 23
50.25
 33
0
  0
SOLID
  5
BB
100
AcDbEntity
  8
ENCLOSURE_CHASSIS
  6
ByBlock
 62
    0
370
   -2
100
AcDbTrace
 10
108
 20
114
 30
0
 11
109.0407116444321
 21
107.75
 31
0
 12
106.9592883555679
 22
107.75
 32
0
 13
106.9592883555679
 23
107.75
 33
0
  0
LINE
  5
BC
100
AcDbEntity
  8
ENCLOSURE_CHASSIS
  6
ByBlock
 62
    0
370
   -2
100
AcDbLine
 10
101.5625
 20
44
 11
111.125
 21
44
  0
LINE
  5
BD
100
AcDbEntity
  8
ENCLOSURE_CHASSIS
  6
ByBlock
 62
    0
370
   -2
100
AcDbLine
 10
101.5625
 20
114
 11
111.125
 21
114
  0
ENDBLK
  5
6F
330
6D
100
AcDbEntity
  8
0
100
AcDbBlockEnd
  0
BLOCK
  5
71
330
70
100
AcDbEntity
  8
0
100
AcDbBlockBegin
  2
*D2
 70
    1
 10
0
 20
0
  3
*D2
  1

  0
LINE
  5
BE
100
AcDbEntity
  8
ENCLOSURE_CHASSIS
  6
ByBlock
 62
    0
370
   -2
100
AcDbLine
 10
240
 20
430
 11
-40
 21
430
  0
MTEXT
  5
BF
100
AcDbEntity
  8
ENCLOSURE_CHASSIS
  6
CONTINUOUS
 62
    0
370
   -2
100
AcDbMText
 10
100
 20
434.6875
 30
0
 40
6.25
 41
12.5
 71
    5
 72
    1
  1
280
  7
STANDARD
210
0
220
0
230
1
 50
0
 73
    2
 44
1
  0
SOLID
  5
C0
100
AcDbEntity
  8
ENCLOSURE_CHASSIS
  6
ByBlock
 62
    0
370
   -2
100
AcDbTrace
 10
240
 20
430
 30
0
 11
233.75
 21
428.9592883555679
 31
0
 12
233.75
 22
431.0407116444321
 32
0
 13
233.75
 23
431.0407116444321
 33
0
  0
SOLID
  5
C1
100
AcDbEntity
  8
ENCLOSURE_CHASSIS
  6
ByBlock
 62
    0
370
   -2
100
AcDbTrace
 10
-40
 20
430
 30
0
 11
-33.75
 21
431.0407116444321
 31
0
 12
-33.75
 22
428.9592883555679
 32
0
 13
-33.75
 23
428.9592883555679
 33
0
  0
LINE
  5
C2
100
AcDbEntity
  8
ENCLOSURE_CHASSIS
  6
ByBlock
 62
    0
370
   -2
100
AcDbLine
 10
240
 20
301.5625
 11
240
 21
433.125
  0
LINE
  5
C3
100
AcDbEntity
  8
ENCLOSURE_CHASSIS
  6
ByBlock
 62
    0
370
   -2
100
AcDbLine
 10
-40
 20
301.5625
 11
-40
 21
433.125
  0
ENDBLK
  5
72
330
70
100
AcDbEntity
  8
0
100
AcDbBlockEnd
  0
BLOCK
  5
74
330
73
100
AcDbEntity
  8
0
100
AcDbBlockBegin
  2
*D5
 70
    1
 10
0
 20
0
  3
*D5
  1

  0
LINE
  5
C4
100
AcDbEntity
  8
ENCLOSURE_CHASSIS
  6
ByBlock
 62
    0
370
   -2
100
AcDbLine
 10
-40
 20
301.5625
 11
-39.99999999999999
 21
403.125
  0
LINE
  5
C5
100
AcDbEntity
  8
ENCLOSURE_CHASSIS
  6
ByBlock
 62
    0
370
   -2
100
AcDbLine
 10
9.567553118338697e-17
 20
301.5625
 11
6.31458505810354e-15
 21
403.125
  0
LINE
  5
C6
100
AcDbEntity
  8
ENCLOSURE_CHASSIS
  6
ByBlock
 62
    0
370
   -2
100
AcDbLine
 10
-39.99999999999999
 20
400
 11
6.123233995736766e-15
 21
400
  0
MTEXT
  5
C7
100
AcDbEntity
  8
ENCLOSURE_CHASSIS
  6
CONTINUOUS
 62
    0
370
   -2
100
AcDbMText
 10
-19.99999999999999
 20
404.6875
 30
0
 40
6.25
 41
8.333333333333332
 71
    5
 72
    1
  1
40
  7
STANDARD
210
0
220
0
230
1
 50
0
 73
    2
 44
1
  0
SOLID
  5
C8
100
AcDbEntity
  8
ENCLOSURE_CHASSIS
  6
ByBlock
 62
    0
370
   -2
100
AcDbTrace
 10
-39.99999999999999
 20
400
 30
0
 11
-33.74999999999999
 21
401.0407116444321
 31
0
 12
-33.74999999999999
 22
398.9592883555679
 32
0
 13
-33.74999999999999
 23
398.9592883555679
 33
0
  0
SOLID
  5
C9
100
AcDbEntity
  8
ENCLOSURE_CHASSIS
  6
ByBlock
 62
    0
370
   -2
100
AcDbTrace
 10
6.123233995736766e-15
 20
400
 30
0
 11
-6.249999999999995
 21
398.9592883555679
 31
0
 12
-6.249999999999995
 22
401.0407116444321
 32
0
 13
-6.249999999999995
 23
401.0407116444321
 33
0
  0
ENDBLK
  5
75
330
73
100
AcDbEntity
  8
0
100
AcDbBlockEnd
  0
BLOCK
  5
77
330
76
100
AcDbEntity
  8
0
100
AcDbBlockBegin
  2
*D11
 70
    1
 10
0
 20
0
  3
*D11
  1

  0
LINE
  5
CA
100
AcDbEntity
  8
FRONTPLATE
  6
ByBlock
 62
    0
370
   -2
100
AcDbLine
 10
-51.5625
 20
-98
 11
-73.125
 21
-98
  0
LINE
  5
CB
100
AcDbEntity
  8
FRONTPLATE
  6
ByBlock
 62
    0
370
   -2
100
AcDbLine
 10
-51.5625
 20
-205
 11
-73.125
 21
-205
  0
LINE
  5
CC
100
AcDbEntity
  8
FRONTPLATE
  6
ByBlock
 62
    0
370
   -2
100
AcDbLine
 10
-70
 20
-98
 11
-70
 21
-205
  0
MTEXT
  5
CD
100
AcDbEntity
  8
FRONTPLATE
  6
CONTINUOUS
 62
    0
370
   -2
100
AcDbMText
 10
-74.6875
 20
-151.5
 30
0
 40
6.25
 41
11.11111111111111
 71
    5
 72
    1
  1
107
  7
STANDARD
210
0
220
0
230
1
 50
90
 73
    2
 44
1
  0
SOLID
  5
CE
100
AcDbEntity
  8
FRONTPLATE
  6
ByBlock
 62
    0
370
   -2
100
AcDbTrace
 10
-70
 20
-98
 30
0
 11
-68.95928835556789
 21
-104.25
 31
0
 12
-71.04071164443211
 22
-104.25
 32
0
 13
-71.04071164443211
 23
-104.25
 33
0
  0
SOLID
  5
CF
100
AcDbEntity
  8
FRONTPLATE
  6
ByBlock
 62
    0
370
   -2
100
AcDbTrace
 10
-70
 20
-205
 30
0
 11
-71.04071164443209
 21
-198.75
 31
0
 12
-68.95928835556789
 22
-198.75
 32
0
 13
-68.95928835556789
 23
-198.75
 33
0
  0
ENDBLK
  5
78
330
76
100
AcDbEntity
  8
0
100
AcDbBlockEnd
  0
BLOCK
  5
7A
330
79
100
AcDbEntity
  8
0
100
AcDbBlockBegin
  2
*D14
 70
    1
 10
0
 20
0
  3
*D14
  1

  0
LINE
  5
D0
100
AcDbEntity
  8
VOLCTL
  6
ByBlock
 62
    0
370
   -2
100
AcDbLine
 10
177
 20
-50
 11
-50
 21
-50
  0
MTEXT
  5
D1
100
AcDbEntity
  8
VOLCTL
  6
CONTINUOUS
 62
    0
370
   -2
100
AcDbMText
 10
63.5
 20
-45.3125
 30
0
 40
6.25
 41
12.5
 71
    5
 72
    1
  1
227
  7
STANDARD
210
0
220
0
230
1
 50
0
 73
    2
 44
1
  0
SOLID
  5
D2
100
AcDbEntity
  8
VOLCTL
  6
ByBlock
 62
    0
370
   -2
100
AcDbTrace
 10
177
 20
-50
 30
0
 11
170.75
 21
-51.0407116444321
 31
0
 12
170.75
 22
-48.9592883555679
 32
0
 13
170.75
 23
-48.9592883555679
 33
0
  0
SOLID
  5
D3
100
AcDbEntity
  8
VOLCTL
  6
ByBlock
 62
    0
370
   -2
100
AcDbTrace
 10
-50
 20
-50
 30
0
 11
-43.75
 21
-48.9592883555679
 31
0
 12
-43.75
 22
-51.0407116444321
 32
0
 13
-43.75
 23
-51.0407116444321
 33
0
  0
LINE
  5
D4
100
AcDbEntity
  8
VOLCTL
  6
ByBlock
 62
    0
370
   -2
100
AcDbLine
 10
177
 20
-148.4375
 11
177
 21
-46.875
  0
LINE
  5
D5
100
AcDbEntity
  8
VOLCTL
  6
ByBlock
 62
    0
370
   -2
100
AcDbLine
 10
-50
 20
-96.4375
 11
-50
 21
-46.875
  0
ENDBLK
  5
7B
330
79
100
AcDbEntity
  8
0
100
AcDbBlockEnd
  0
BLOCK
  5
7D
330
7C
100
AcDbEntity
  8
0
100
AcDbBlockBegin
  2
*D6
 70
    1
 10
0
 20
0
  3
*D6
  1

  0
LINE
  5
D6
100
AcDbEntity
  8
ENCLOSURE_CHASSIS
  6
ByBlock
 62
    0
370
   -2
100
AcDbLine
 10
-10
 20
-201.5625
 11
-10.00000000000001
 21
-243.125
  0
LINE
  5
D7
100
AcDbEntity
  8
ENCLOSURE_CHASSIS
  6
ByBlock
 62
    0
370
   -2
100
AcDbLine
 10
210
 20
-201.5625
 11
210
 21
-243.125
  0
LINE
  5
D8
100
AcDbEntity
  8
ENCLOSURE_CHASSIS
  6
ByBlock
 62
    0
370
   -2
100
AcDbLine
 10
-10.00000000000001
 20
-240
 11
210
 21
-240
  0
MTEXT
  5
D9
100
AcDbEntity
  8
ENCLOSURE_CHASSIS
  6
CONTINUOUS
 62
    0
370
   -2
100
AcDbMText
 10
100
 20
-235.3125
 30
0
 40
6.25
 41
12.5
 71
    5
 72
    1
  1
220
  7
STANDARD
210
0
220
0
230
1
 50
0
 73
    2
 44
1
  0
SOLID
  5
DA
100
AcDbEntity
  8
ENCLOSURE_CHASSIS
  6
ByBlock
 62
    0
370
   -2
100
AcDbTrace
 10
-10.00000000000001
 20
-240
 30
0
 11
-3.750000000000007
 21
-238.9592883555679
 31
0
 12
-3.750000000000007
 22
-241.0407116444321
 32
0
 13
-3.750000000000007
 23
-241.0407116444321
 33
0
  0
SOLID
  5
DB
100
AcDbEntity
  8
ENCLOSURE_CHASSIS
  6
ByBlock
 62
    0
370
   -2
100
AcDbTrace
 10
210
 20
-240
 30
0
 11
203.75
 21
-241.0407116444321
 31
0
 12
203.75
 22
-238.9592883555679
 32
0
 13
203.75
 23
-238.9592883555679
 33
0
  0
ENDBLK
  5
7E
330
7C
100
AcDbEntity
  8
0
100
AcDbBlockEnd
  0
BLOCK
  5
80
330
7F
100
AcDbEntity
  8
0
100
AcDbBlockBegin
  2
*D15
 70
    1
 10
0
 20
0
  3
*D15
  1

  0
LINE
  5
DC
100
AcDbEntity
  8
ENCLOSURE_CHASSIS
  6
ByBlock
 62
    0
370
   -2
100
AcDbLine
 10
72
 20
14.4375
 11
72
 21
8.875
  0
LINE
  5
DD
100
AcDbEntity
  8
ENCLOSURE_CHASSIS
  6
ByBlock
 62
    0
370
   -2
100
AcDbLine
 10
128
 20
14.4375
 11
128
 21
8.875
  0
LINE
  5
DE
100
AcDbEntity
  8
ENCLOSURE_CHASSIS
  6
ByBlock
 62
    0
370
   -2
100
AcDbLine
 10
72
 20
12
 11
128
 21
12
  0
MTEXT
  5
DF
100
AcDbEntity
  8
ENCLOSURE_CHASSIS
  6
CONTINUOUS
 62
    0
370
   -2
100
AcDbMText
 10
100
 20
16.6875
 30
0
 40
6.25
 41
7.638888888889664
 71
    5
 72
    1
  1
56
  7
STANDARD
210
0
220
0
230
1
 50
0
 73
    2
 44
1
  0
SOLID
  5
E0
100
AcDbEntity
  8
ENCLOSURE_CHASSIS
  6
ByBlock
 62
    0
370
   -2
100
AcDbTrace
 10
72
 20
12
 30
0
 11
78.25
 21
13.0407116444321
 31
0
 12
78.25
 22
10.9592883555679
 32
0
 13
78.25
 23
10.9592883555679
 33
0
  0
SOLID
  5
E1
100
AcDbEntity
  8
ENCLOSURE_CHASSIS
  6
ByBlock
 62
    0
370
   -2
100
AcDbTrace
 10
128
 20
12
 30
0
 11
121.75
 21
10.9592883555679
 31
0
 12
121.75
 22
13.0407116444321
 32
0
 13
121.75
 23
13.0407116444321
 33
0
  0
ENDBLK
  5
81
330
7F
100
AcDbEntity
  8
0
100
AcDbBlockEnd
  0
BLOCK
  5
83
330
82
100
AcDbEntity
  8
0
100
AcDbBlockBegin
  2
*D16
 70
    1
 10
0
 20
0
  3
*D16
  1

  0
LINE
  5
E2
100
AcDbEntity
  8
ENCLOSURE_CHASSIS
  6
ByBlock
 62
    0
370
   -2
100
AcDbLine
 10
70.4375
 20
16
 11
59.875
 21
16
  0
LINE
  5
E3
100
AcDbEntity
  8
ENCLOSURE_CHASSIS
  6
ByBlock
 62
    0
370
   -2
100
AcDbLine
 10
70.4375
 20
282
 11
59.875
 21
282
  0
LINE
  5
E4
100
AcDbEntity
  8
ENCLOSURE_CHASSIS
  6
ByBlock
 62
    0
370
   -2
100
AcDbLine
 10
63
 20
16
 11
63
 21
282
  0
MTEXT
  5
E5
100
AcDbEntity
  8
ENCLOSURE_CHASSIS
  6
CONTINUOUS
 62
    0
370
   -2
100
AcDbMText
 10
58.3125
 20
149
 30
0
 40
6.25
 41
12.50000000000078
 71
    5
 72
    1
  1
266
  7
STANDARD
210
0
220
0
230
1
 50
90
 73
    2
 44
1
  0
SOLID
  5
E6
100
AcDbEntity
  8
ENCLOSURE_CHASSIS
  6
ByBlock
 62
    0
370
   -2
100
AcDbTrace
 10
63
 20
16
 30
0
 11
61.9592883555679
 21
22.25
 31
0
 12
64.04071164443211
 22
22.25
 32
0
 13
64.04071164443211
 23
22.25
 33
0
  0
SOLID
  5
E7
100
AcDbEntity
  8
ENCLOSURE_CHASSIS
  6
ByBlock
 62
    0
370
   -2
100
AcDbTrace
 10
63
 20
282
 30
0
 11
64.04071164443211
 21
275.75
 31
0
 12
61.9592883555679
 22
275.75
 32
0
 13
61.9592883555679
 23
275.75
 33
0
  0
ENDBLK
  5
84
330
82
100
AcDbEntity
  8
0
100
AcDbBlockEnd
  0
BLOCK
  5
86
330
85
100
AcDbEntity
  8
0
100
AcDbBlockBegin
  2
*D9
 70
    1
 10
0
 20
0
  3
*D9
  1

  0
LINE
  5
E8
100
AcDbEntity
  8
ENCLOSURE_CHASSIS
  6
ByBlock
 62
    0
370
   -2
100
AcDbLine
 10
310
 20
-100
 11
310
 21
-203
  0
MTEXT
  5
E9
100
AcDbEntity
  8
ENCLOSURE_CHASSIS
  6
CONTINUOUS
 62
    0
370
   -2
100
AcDbMText
 10
305.3125
 20
-151.5
 30
0
 40
6.25
 41
11.1111111111115
 71
    5
 72
    1
  1
103
  7
STANDARD
210
0
220
0
230
1
 50
90
 73
    2
 44
1
  0
SOLID
  5
EA
100
AcDbEntity
  8
ENCLOSURE_CHASSIS
  6
ByBlock
 62
    0
370
   -2
100
AcDbTrace
 10
310
 20
-100
 30
0
 11
311.0407116444321
 21
-106.25
 31
0
 12
308.9592883555679
 22
-106.25
 32
0
 13
308.9592883555679
 23
-106.25
 33
0
  0
SOLID
  5
EB
100
AcDbEntity
  8
ENCLOSURE_CHASSIS
  6
ByBlock
 62
    0
370
   -2
100
AcDbTrace
 10
310
 20
-203
 30
0
 11
308.9592883555679
 21
-196.75
 31
0
 12
311.0407116444321
 22
-196.75
 32
0
 13
311.0407116444321
 23
-196.75
 33
0
  0
LINE
  5
EC
100
AcDbEntity
  8
ENCLOSURE_CHASSIS
  6
ByBlock
 62
    0
370
   -2
100
AcDbLine
 10
201.5625
 20
-100
 11
313.125
 21
-100
  0
LINE
  5
ED
100
AcDbEntity
  8
ENCLOSURE_CHASSIS
  6
ByBlock
 62
    0
370
   -2
100
AcDbLine
 10
208.5625
 20
-203
 11
313.125
 21
-203
  0
ENDBLK
  5
87
330
85
100
AcDbEntity
  8
0
100
AcDbBlockEnd
  0
ENDSEC
  0
SECTION
  2
ENTITIES
  0
LWPOLYLINE
  5
EE
100
AcDbEntity
  8
HEATSINK
  6
ByLayer
 62
  256
370
   -1
100
AcDbPolyline
 90
    4
 70
    1
 43
0
 10
0
 20
0
 10
-40
 20
0
 10
-40
 20
300
 10
0
 20
300
  0
LWPOLYLINE
  5
EF
100
AcDbEntity
  8
HEATSINK
  6
ByLayer
 62
  256
370
   -1
100
AcDbPolyline
 90
    4
 70
    1
 43
0
 10
200
 20
0
 10
240
 20
0
 10
240
 20
300
 10
200
 20
300
  0
LWPOLYLINE
  5
F0
100
AcDbEntity
  8
HEATSINK
  6
ByLayer
 62
  256
370
   -1
100
AcDbPolyline
 90
    4
 70
    1
 43
0
 10
0
 20
-200
 10
-40
 20
-200
 10
-40
 20
-100
 10
0
 20
-100
  0
LWPOLYLINE
  5
F1
100
AcDbEntity
  8
HEATSINK
  6
ByLayer
 62
  256
370
   -1
100
AcDbPolyline
 90
    4
 70
    1
 43
0
 10
200
 20
-100
 10
240
 20
-100
 10
240
 20
-200
 10
200
 20
-200
  0
LWPOLYLINE
  5
F2
100
AcDbEntity
  8
ENCLOSURE_CHASSIS
  6
ByLayer
 62
  256
370
   -1
100
AcDbPolyline
 90
    4
 70
    1
 43
0
 10
0
 20
-100
 10
200
 20
-100
 10
200
 20
-105
 10
0
 20
-105
  0
LWPOLYLINE
  5
F3
100
AcDbEntity
  8
ENCLOSURE_CHASSIS
  6
ByLayer
 62
  256
370
   -1
100
AcDbPolyline
 90
    4
 70
    1
 43
0
 10
190
 20
-105
 10
200
 20
-105
 10
200
 20
-115
 10
190
 20
-115
  0
LWPOLYLINE
  5
F4
100
AcDbEntity
  8
ENCLOSURE_CHASSIS
  6
ByLayer
 62
  256
370
   -1
100
AcDbPolyline
 90
    4
 70
    1
 43
0
 10
0
 20
-105
 10
10
 20
-105
 10
10
 20
-115
 10
0
 20
-115
  0
LWPOLYLINE
  5
F5
100
AcDbEntity
  8
ENCLOSURE_CHASSIS
  6
ByLayer
 62
  256
370
   -1
100
AcDbPolyline
 90
    4
 70
    1
 43
0
 10
0
 20
300
 10
200
 20
300
 10
200
 20
297
 10
0
 20
297
  0
LWPOLYLINE
  5
F6
100
AcDbEntity
  8
ENCLOSURE_CHASSIS
  6
ByLayer
 62
  256
370
   -1
100
AcDbPolyline
 90
    4
 70
    1
 43
0
 10
-42
 20
0
 10
242
 20
0
 10
242
 20
-4
 10
-42
 20
-4
  0
LWPOLYLINE
  5
F7
100
AcDbEntity
  8
AMP
  6
ByLayer
 62
  256
370
   -1
100
AcDbPolyline
 90
    4
 70
    1
 43
0
 10
0
 20
-195
 10
72
 20
-195
 10
72
 20
-117
 10
0
 20
-117
  0
LWPOLYLINE
  5
F8
100
AcDbEntity
  8
AMP
  6
ByLayer
 62
  256
370
   -1
100
AcDbPolyline
 90
    4
 70
    1
 43
0
 10
200
 20
-195
 10
128
 20
-195
 10
128
 20
-117
 10
200
 20
-117
  0
LWPOLYLINE
  5
F9
100
AcDbEntity
  8
ENCLOSURE_CHASSIS
  6
ByLayer
 62
  256
370
   -1
100
AcDbPolyline
 90
    4
 70
    1
 43
0
 10
-7
 20
-203
 10
207
 20
-203
 10
210
 20
-200
 10
-10
 20
-200
  0
LWPOLYLINE
  5
FA
100
AcDbEntity
  8
AMP
  6
ByLayer
 62
  256
370
   -1
100
AcDbPolyline
 90
    4
 70
    1
 43
0
 10
200
 20
0
 10
128
 20
0
 10
128
 20
190
 10
200
 20
190
  0
LWPOLYLINE
  5
FB
100
AcDbEntity
  8
COLEMANFILREG
  6
ByLayer
 62
  256
370
   -1
100
AcDbPolyline
 90
    4
 70
    1
 43
0
 10
200
 20
195
 10
136
 20
195
 10
136
 20
235
 10
200
 20
235
  0
LWPOLYLINE
  5
FC
100
AcDbEntity
  8
COLEMANFILREG
  6
ByLayer
 62
  256
370
   -1
100
AcDbPolyline
 90
    4
 70
    1
 43
0
 10
136
 20
236
 10
200
 20
236
 10
200
 20
276
 10
136
 20
276
  0
LWPOLYLINE
  5
FD
100
AcDbEntity
  8
COLEMANFILREG
  6
ByLayer
 62
  256
370
   -1
100
AcDbPolyline
 90
    4
 70
    1
 43
0
 10
64
 20
0
 10
0
 20
0
 10
0
 20
40
 10
64
 20
40
  0
LWPOLYLINE
  5
FE
100
AcDbEntity
  8
COLEMANFILREG
  6
ByLayer
 62
  256
370
   -1
100
AcDbPolyline
 90
    4
 70
    1
 43
0
 10
0
 20
41
 10
64
 20
41
 10
64
 20
81
 10
0
 20
81
  0
LWPOLYLINE
  5
FF
100
AcDbEntity
  8
AMP
  6
ByLayer
 62
  256
370
   -1
100
AcDbPolyline
 90
    4
 70
    1
 43
0
 10
72
 20
86
 10
0
 20
86
 10
0
 20
276
 10
72
 20
276
  0
CIRCLE
  5
100
100
AcDbEntity
  8
AMP
  6
ByLayer
 62
  256
370
   -1
100
AcDbCircle
 10
100
 20
254
 40
26
  0
CIRCLE
  5
101
100
AcDbEntity
  8
AMP
  6
ByLayer
 62
  256
370
   -1
100
AcDbCircle
 10
100
 20
114
 40
26
  0
CIRCLE
  5
102
100
AcDbEntity
  8
AMP
  6
ByLayer
 62
  256
370
   -1
100
AcDbCircle
 10
100
 20
44
 40
26
  0
CIRCLE
  5
103
100
AcDbEntity
  8
AMP
  6
ByLayer
 62
  256
370
   -1
100
AcDbCircle
 10
100
 20
184
 40
26
  0
LWPOLYLINE
  5
104
100
AcDbEntity
  8
AMP
  6
ByLayer
 62
  256
370
   -1
100
AcDbPolyline
 90
    4
 70
    1
 43
0
 10
82
 20
-180
 10
118
 20
-180
 10
118
 20
-153
 10
82
 20
-153
  0
LWPOLYLINE
  5
105
100
AcDbEntity
  8
AMP
  6
ByLayer
 62
  256
370
   -1
100
AcDbPolyline
 90
    4
 70
    1
 43
0
 10
74
 20
-63
 10
126
 20
-63
 10
126
 20
-153
 10
74
 20
-153
  0
CIRCLE
  5
106
100
AcDbEntity
  8
VOLCTL
  6
ByLayer
 62
  256
370
   -1
100
AcDbCircle
 10
177
 20
-150
 40
19
  0
LWPOLYLINE
  5
107
100
AcDbEntity
  8
VOLCTL
  6
ByLayer
 62
  256
370
   -1
100
AcDbPolyline
 90
    4
 70
    1
 43
0
 10
158
 20
0
 10
196
 20
0
 10
196
 20
77
 10
158
 20
77
  0
LWPOLYLINE
  5
108
100
AcDbEntity
  8
CONNECTORS
  6
ByLayer
 62
  256
370
   -1
100
AcDbPolyline
 90
    4
 70
    1
 43
0
 10
10
 20
310
 10
190
 20
310
 10
190
 20
250
 10
10
 20
250
  0
LWPOLYLINE
  5
109
100
AcDbEntity
  8
ENCLOSURE_CHASSIS
  6
ByLayer
 62
  256
370
   -1
100
AcDbPolyline
 90
    4
 70
    1
 43
0
 10
20
 20
297
 10
180
 20
297
 10
180
 20
287
 10
20
 20
287
  0
LWPOLYLINE
  5
10A
100
AcDbEntity
  8
ENCLOSURE_CHASSIS
  6
ByLayer
 62
  256
370
   -1
100
AcDbPolyline
 90
    4
 70
    1
 43
0
 10
20
 20
-200
 10
180
 20
-200
 10
180
 20
-190
 10
20
 20
-190
  0
LWPOLYLINE
  5
10B
100
AcDbEntity
  8
ENCLOSURE_CHASSIS
  6
ByLayer
 62
  256
370
   -1
100
AcDbPolyline
 90
    4
 70
    1
 43
0
 10
20
 20
-115
 10
180
 20
-115
 10
180
 20
-105
 10
20
 20
-105
  0
LWPOLYLINE
  5
10C
100
AcDbEntity
  8
ENCLOSURE_CHASSIS
  6
ByLayer
 62
  256
370
   -1
100
AcDbPolyline
 90
    4
 70
    1
 43
0
 10
0
 20
0
 10
10
 20
0
 10
10
 20
297
 10
0
 20
297
  0
LWPOLYLINE
  5
10D
100
AcDbEntity
  8
ENCLOSURE_CHASSIS
  6
ByLayer
 62
  256
370
   -1
100
AcDbPolyline
 90
    4
 70
    1
 43
0
 10
200
 20
0
 10
192
 20
0
 10
192
 20
297
 10
200
 20
297
  0
DIMENSION
  5
10E
100
AcDbEntity
  8
ENCLOSURE_CHASSIS
  6
ByLayer
 62
  256
370
   -1
100
AcDbDimension
  2
*D1
 10
200
 20
400
 30
0
 11
100
 21
404.6875
 31
0
 70
   32
 71
    5
 72
    0
  3
Standard
 53
0
210
0
220
0
230
1
100
AcDbAlignedDimension
 13
0
 23
300
 33
0
 14
200
 24
300
 34
0
100
AcDbRotatedDimension
  0
DIMENSION
  5
10F
100
AcDbEntity
  8
ENCLOSURE_CHASSIS
  6
ByLayer
 62
  256
370
   -1
100
AcDbDimension
  2
*D2
 10
-39.99999999999999
 20
430
 30
0
 11
100
 21
434.6875
 31
0
 70
   32
 71
    5
 72
    0
  3
Standard
 53
0
210
0
220
0
230
1
100
AcDbAlignedDimension
 13
240
 23
300
 33
0
 14
-40
 24
300
 34
0
100
AcDbRotatedDimension
  0
DIMENSION
  5
110
100
AcDbEntity
  8
ENCLOSURE_CHASSIS
  6
ByLayer
 62
  256
370
   -1
100
AcDbDimension
  2
*D3
 10
320
 20
300
 30
0
 11
315.3125
 21
150
 31
0
 70
   33
 71
    5
 72
    0
  3
Standard
 53
0
210
0
220
0
230
1
100
AcDbAlignedDimension
 13
240
 23
0
 33
0
 14
240
 24
300
 34
0
  0
DIMENSION
  5
111
100
AcDbEntity
  8
ENCLOSURE_CHASSIS
  6
ByLayer
 62
  256
370
   -1
100
AcDbDimension
  2
*D4
 10
240
 20
400
 30
0
 11
220
 21
404.6875
 31
0
 70
   33
 71
    5
 72
    0
  3
Standard
 53
0
210
0
220
0
230
1
100
AcDbAlignedDimension
 13
200
 23
300
 33
0
 14
240
 24
300
 34
0
  0
DIMENSION
  5
112
100
AcDbEntity
  8
ENCLOSURE_CHASSIS
  6
ByLayer
 62
  256
370
   -1
100
AcDbDimension
  2
*D5
 10
-9.82193361864235e-16
 20
400
 30
0
 11
-19.99999999999999
 21
404.6875
 31
0
 70
   33
 71
    5
 72
    0
  3
Standard
 53
0
210
0
220
0
230
1
100
AcDbAlignedDimension
 13
-40
 23
300
 33
0
 14
0
 24
300
 34
0
  0
DIMENSION
  5
113
100
AcDbEntity
  8
ENCLOSURE_CHASSIS
  6
ByLayer
 62
  256
370
   -1
100
AcDbDimension
  2
*D6
 10
210
 20
-240
 30
0
 11
100
 21
-235.3125
 31
0
 70
   33
 71
    5
 72
    0
  3
Standard
 53
0
210
0
220
0
230
1
100
AcDbAlignedDimension
 13
-10
 23
-200
 33
0
 14
210
 24
-200
 34
0
  0
DIMENSION
  5
114
100
AcDbEntity
  8
ENCLOSURE_CHASSIS
  6
ByLayer
 62
  256
370
   -1
100
AcDbDimension
  2
*D7
 10
280
 20
-200
 30
0
 11
275.3125
 21
-152.5
 31
0
 70
   33
 71
    5
 72
    0
  3
Standard
 53
0
210
0
220
0
230
1
100
AcDbAlignedDimension
 13
200
 23
-105
 33
0
 14
200
 24
-200
 34
0
  0
DIMENSION
  5
115
100
AcDbEntity
  8
ENCLOSURE_CHASSIS
  6
ByLayer
 62
  256
370
   -1
100
AcDbDimension
  2
*D8
 10
280
 20
-100
 30
0
 11
275.3125
 21
-102.5
 31
0
 70
   33
 71
    5
 72
    0
  3
Standard
 53
0
210
0
220
0
230
1
100
AcDbAlignedDimension
 13
200
 23
-105
 33
0
 14
200
 24
-100
 34
0
  0
DIMENSION
  5
116
100
AcDbEntity
  8
ENCLOSURE_CHASSIS
  6
ByLayer
 62
  256
370
   -1
100
AcDbDimension
  2
*D9
 10
310
 20
-203
 30
0
 11
305.3125
 21
-151.5
 31
0
 70
   32
 71
    5
 72
    0
  3
Standard
 53
0
210
0
220
0
230
1
100
AcDbAlignedDimension
 13
200
 23
-100
 33
0
 14
207
 24
-203
 34
0
 50
90
100
AcDbRotatedDimension
  0
DIMENSION
  5
117
100
AcDbEntity
  8
ENCLOSURE_CHASSIS
  6
ByLayer
 62
  256
370
   -1
100
AcDbDimension
  2
*D10
 10
260
 20
-105
 30
0
 11
255.3125
 21
-110
 31
0
 70
   32
 71
    5
 72
    0
  3
Standard
 53
0
210
0
220
0
230
1
100
AcDbAlignedDimension
 13
200
 23
-115
 33
0
 14
200
 24
-105
 34
0
 50
90
100
AcDbRotatedDimension
  0
LWPOLYLINE
  5
118
100
AcDbEntity
  8
FRONTPLATE
  6
ByLayer
 62
  256
370
   -1
100
AcDbPolyline
 90
    4
 70
    1
 43
0
 10
-50
 20
-98
 10
250
 20
-98
 10
250
 20
-205
 10
-50
 20
-205
  0
DIMENSION
  5
119
100
AcDbEntity
  8
FRONTPLATE
  6
ByLayer
 62
  256
370
   -1
100
AcDbDimension
  2
*D11
 10
-70
 20
-205
 30
0
 11
-74.6875
 21
-151.5
 31
0
 70
   33
 71
    5
 72
    0
  3
Standard
 53
0
210
0
220
0
230
1
100
AcDbAlignedDimension
 13
-50
 23
-98
 33
0
 14
-50
 24
-205
 34
0
  0
DIMENSION
  5
11A
100
AcDbEntity
  8
FRONTPLATE
  6
ByLayer
 62
  256
370
   -1
100
AcDbDimension
  2
*D12
 10
250
 20
-270
 30
0
 11
100
 21
-265.3125
 31
0
 70
   33
 71
    5
 72
    0
  3
Standard
 53
0
210
0
220
0
230
1
100
AcDbAlignedDimension
 13
-50
 23
-205
 33
0
 14
250
 24
-205
 34
0
  0
DIMENSION
  5
11B
100
AcDbEntity
  8
ENCLOSURE_CHASSIS
  6
ByLayer
 62
  256
370
   -1
100
AcDbDimension
  2
*D13
 10
280
 20
-203
 30
0
 11
275.3125
 21
-201.5
 31
0
 70
   32
 71
    5
 72
    0
  3
Standard
 53
0
210
0
220
0
230
1
100
AcDbAlignedDimension
 13
210
 23
-200
 33
0
 14
207
 24
-203
 34
0
 50
90
100
AcDbRotatedDimension
  0
DIMENSION
  5
11C
100
AcDbEntity
  8
VOLCTL
  6
ByLayer
 62
  256
370
   -1
100
AcDbDimension
  2
*D14
 10
-50
 20
-50
 30
0
 11
63.5
 21
-45.3125
 31
0
 70
   32
 71
    5
 72
    0
  3
Standard
 53
0
210
0
220
0
230
1
100
AcDbAlignedDimension
 13
177
 23
-150
 33
0
 14
-50
 24
-98
 34
0
100
AcDbRotatedDimension
  0
LWPOLYLINE
  5
11D
100
AcDbEntity
  8
ENCLOSURE_CHASSIS
  6
ByLayer
 62
  256
370
   -1
100
AcDbPolyline
 90
    4
 70
    1
 43
0
 10
72
 20
282
 10
128
 20
282
 10
128
 20
16
 10
72
 20
16
  0
DIMENSION
  5
11E
100
AcDbEntity
  8
ENCLOSURE_CHASSIS
  6
ByLayer
 62
  256
370
   -1
100
AcDbDimension
  2
*D15
 10
128
 20
12
 30
0
 11
100
 21
16.6875
 31
0
 70
   33
 71
    5
 72
    0
  3
Standard
 53
0
210
0
220
0
230
1
100
AcDbAlignedDimension
 13
72
 23
16
 33
0
 14
128
 24
16
 34
0
  0
DIMENSION
  5
11F
100
AcDbEntity
  8
ENCLOSURE_CHASSIS
  6
ByLayer
 62
  256
370
   -1
100
AcDbDimension
  2
*D16
 10
63
 20
282
 30
0
 11
58.3125
 21
149
 31
0
 70
   33
 71
    5
 72
    0
  3
Standard
 53
0
210
0
220
0
230
1
100
AcDbAlignedDimension
 13
72
 23
16
 33
0
 14
72
 24
282
 34
0
  0
DIMENSION
  5
120
100
AcDbEntity
  8
ENCLOSURE_CHASSIS
  6
ByLayer
 62
  256
370
   -1
100
AcDbDimension
  2
*D17
 10
108
 20
114
 30
0
 11
103.3125
 21
79
 31
0
 70
   32
 71
    5
 72
    0
  3
Standard
 53
0
210
0
220
0
230
1
100
AcDbAlignedDimension
 13
100
 23
44
 33
0
 14
100
 24
114
 34
0
 50
90
100
AcDbRotatedDimension
  0
ENDSEC
  0
SECTION
  2
OBJECTS
  0
DICTIONARY
  5
C
330
0
100
AcDbDictionary
281
    1
  3
ACAD_GROUP
350
D
  0
DICTIONARY
  5
D
330
C
100
AcDbDictionary
281
    1
  0
PLOTSETTINGS
  5
121
100
AcDbPlotSettings
  6
1x1
 40
0
 41
0
 42
0
 43
0
  0
ENDSEC
  0
EOF
