<?xml version="1.0" encoding="UTF-8" standalone="no"?>
<!-- Created with Inkscape (http://www.inkscape.org/) -->

<svg
   version="1.1"
   id="svg2"
   width="816"
   height="1056"
   viewBox="0 0 816 1056"
   sodipodi:docname="PSU_CONNECTORS_PINOUTS.svg"
   inkscape:version="1.2.2 (b0a8486541, 2022-12-01)"
   xmlns:inkscape="http://www.inkscape.org/namespaces/inkscape"
   xmlns:sodipodi="http://sodipodi.sourceforge.net/DTD/sodipodi-0.dtd"
   xmlns="http://www.w3.org/2000/svg"
   xmlns:svg="http://www.w3.org/2000/svg">
  <defs
     id="defs6">
    <clipPath
       clipPathUnits="userSpaceOnUse"
       id="clipPath106">
      <path
         d="m 239.997,493.303 h 44.264 v -43.359 h -44.264 z"
         id="path104" />
    </clipPath>
    <clipPath
       clipPathUnits="userSpaceOnUse"
       id="clipPath136">
      <path
         d="m 239.997,493.303 h 44.264 v -43.359 h -44.264 z"
         id="path134" />
    </clipPath>
    <clipPath
       clipPathUnits="userSpaceOnUse"
       id="clipPath150">
      <path
         d="m 372.242,358.087 h 44.264 V 315 h -44.264 z"
         id="path148" />
    </clipPath>
    <clipPath
       clipPathUnits="userSpaceOnUse"
       id="clipPath186">
      <path
         d="m 372.242,358.087 h 44.264 V 315 h -44.264 z"
         id="path184" />
    </clipPath>
    <clipPath
       clipPathUnits="userSpaceOnUse"
       id="clipPath198">
      <path
         d="m 173.994,622.459 h 39.225 v -37.547 h -39.225 z"
         id="path196" />
    </clipPath>
    <clipPath
       clipPathUnits="userSpaceOnUse"
       id="clipPath236">
      <path
         d="m 173.994,622.459 h 39.225 v -37.547 h -39.225 z"
         id="path234" />
    </clipPath>
    <clipPath
       clipPathUnits="userSpaceOnUse"
       id="clipPath250">
      <path
         d="m 239.277,622.825 h 39.225 v -38.281 h -39.225 z"
         id="path248" />
    </clipPath>
    <clipPath
       clipPathUnits="userSpaceOnUse"
       id="clipPath274">
      <path
         d="m 239.277,622.825 h 39.225 v -38.281 h -39.225 z"
         id="path272" />
    </clipPath>
    <clipPath
       clipPathUnits="userSpaceOnUse"
       id="clipPath286">
      <path
         d="m 305.999,623.067 h 39.225 v -38.521 h -39.225 z"
         id="path284" />
    </clipPath>
    <clipPath
       clipPathUnits="userSpaceOnUse"
       id="clipPath300">
      <path
         d="m 371.282,623.068 h 39.225 v -38.521 h -39.225 z"
         id="path298" />
    </clipPath>
    <clipPath
       clipPathUnits="userSpaceOnUse"
       id="clipPath328">
      <path
         d="m 371.282,623.068 h 39.225 v -38.521 h -39.225 z"
         id="path326" />
    </clipPath>
    <clipPath
       clipPathUnits="userSpaceOnUse"
       id="clipPath342">
      <path
         d="m 450.244,625.171 h 44.264 v -42.824 h -44.264 z"
         id="path340" />
    </clipPath>
    <clipPath
       clipPathUnits="userSpaceOnUse"
       id="clipPath378">
      <path
         d="M 519.006,625.167 H 563.27 V 582.225 H 519.006 Z"
         id="path376" />
    </clipPath>
    <clipPath
       clipPathUnits="userSpaceOnUse"
       id="clipPath406">
      <path
         d="M 519.006,625.167 H 563.27 V 582.225 H 519.006 Z"
         id="path404" />
    </clipPath>
    <clipPath
       clipPathUnits="userSpaceOnUse"
       id="clipPath420">
      <path
         d="m 171.234,492.808 h 44.264 v -42.586 h -44.264 z"
         id="path418" />
    </clipPath>
    <clipPath
       clipPathUnits="userSpaceOnUse"
       id="clipPath440">
      <path
         d="m 171.234,492.808 h 44.264 v -42.586 h -44.264 z"
         id="path438" />
    </clipPath>
    <clipPath
       clipPathUnits="userSpaceOnUse"
       id="clipPath454">
      <path
         d="m 309.239,493.303 h 44.264 v -43.359 h -44.264 z"
         id="path452" />
    </clipPath>
    <clipPath
       clipPathUnits="userSpaceOnUse"
       id="clipPath468">
      <path
         d="m 372.002,493.092 h 44.264 V 450.12 h -44.264 z"
         id="path466" />
    </clipPath>
    <clipPath
       clipPathUnits="userSpaceOnUse"
       id="clipPath484">
      <path
         d="m 441.004,492.837 h 44.264 v -42.586 h -44.264 z"
         id="path482" />
    </clipPath>
    <clipPath
       clipPathUnits="userSpaceOnUse"
       id="clipPath520">
      <path
         d="m 441.004,492.837 h 44.264 v -42.586 h -44.264 z"
         id="path518" />
    </clipPath>
    <clipPath
       clipPathUnits="userSpaceOnUse"
       id="clipPath534">
      <path
         d="m 519.36,493.093 h 44.151 V 450.12 H 519.36 Z"
         id="path532" />
    </clipPath>
    <clipPath
       clipPathUnits="userSpaceOnUse"
       id="clipPath568">
      <path
         d="m 519.36,493.093 h 44.151 V 450.12 H 519.36 Z"
         id="path566" />
    </clipPath>
    <clipPath
       clipPathUnits="userSpaceOnUse"
       id="clipPath580">
      <path
         d="m 171.234,358.17 h 44.264 V 315 h -44.264 z"
         id="path578" />
    </clipPath>
    <clipPath
       clipPathUnits="userSpaceOnUse"
       id="clipPath614">
      <path
         d="m 171.234,358.17 h 44.264 V 315 h -44.264 z"
         id="path612" />
    </clipPath>
    <clipPath
       clipPathUnits="userSpaceOnUse"
       id="clipPath626">
      <path
         d="m 236.997,358.17 h 44.264 V 315 h -44.264 z"
         id="path624" />
    </clipPath>
    <clipPath
       clipPathUnits="userSpaceOnUse"
       id="clipPath666">
      <path
         d="m 236.997,358.17 h 44.264 V 315 h -44.264 z"
         id="path664" />
    </clipPath>
    <clipPath
       clipPathUnits="userSpaceOnUse"
       id="clipPath678">
      <path
         d="m 302.999,358.087 h 44.264 V 315 h -44.264 z"
         id="path676" />
    </clipPath>
    <clipPath
       clipPathUnits="userSpaceOnUse"
       id="clipPath702">
      <path
         d="m 302.999,358.087 h 44.264 V 315 h -44.264 z"
         id="path700" />
    </clipPath>
    <clipPath
       clipPathUnits="userSpaceOnUse"
       id="clipPath714">
      <path
         d="m 450.244,357.877 h 44.264 v -42.586 h -44.264 z"
         id="path712" />
    </clipPath>
    <clipPath
       clipPathUnits="userSpaceOnUse"
       id="clipPath732">
      <path
         d="m 450.244,357.877 h 44.264 v -42.586 h -44.264 z"
         id="path730" />
    </clipPath>
    <clipPath
       clipPathUnits="userSpaceOnUse"
       id="clipPath746">
      <path
         d="M 519.246,357.804 H 563.51 V 315.218 H 519.246 Z"
         id="path744" />
    </clipPath>
    <clipPath
       clipPathUnits="userSpaceOnUse"
       id="clipPath792">
      <path
         d="M 519.246,357.804 H 563.51 V 315.218 H 519.246 Z"
         id="path790" />
    </clipPath>
    <clipPath
       clipPathUnits="userSpaceOnUse"
       id="clipPath806">
      <path
         d="m 171.234,235.286 h 44.264 V 192.12 h -44.264 z"
         id="path804" />
    </clipPath>
    <clipPath
       clipPathUnits="userSpaceOnUse"
       id="clipPath818">
      <path
         d="m 171.234,235.286 h 44.264 V 192.12 h -44.264 z"
         id="path816" />
    </clipPath>
    <clipPath
       clipPathUnits="userSpaceOnUse"
       id="clipPath830">
      <path
         d="m 308.999,235.043 h 44.264 v -42.705 h -44.264 z"
         id="path828" />
    </clipPath>
    <clipPath
       clipPathUnits="userSpaceOnUse"
       id="clipPath860">
      <path
         d="m 308.999,235.043 h 44.264 v -42.705 h -44.264 z"
         id="path858" />
    </clipPath>
    <clipPath
       clipPathUnits="userSpaceOnUse"
       id="clipPath872">
      <path
         d="m 372.242,235.413 h 44.264 V 192.12 h -44.264 z"
         id="path870" />
    </clipPath>
    <clipPath
       clipPathUnits="userSpaceOnUse"
       id="clipPath894">
      <path
         d="m 372.242,235.413 h 44.264 V 192.12 h -44.264 z"
         id="path892" />
    </clipPath>
    <clipPath
       clipPathUnits="userSpaceOnUse"
       id="clipPath908">
      <path
         d="m 444.244,235.043 h 44.264 v -42.705 h -44.264 z"
         id="path906" />
    </clipPath>
    <clipPath
       clipPathUnits="userSpaceOnUse"
       id="clipPath924">
      <path
         d="m 444.244,235.043 h 44.264 v -42.705 h -44.264 z"
         id="path922" />
    </clipPath>
    <clipPath
       clipPathUnits="userSpaceOnUse"
       id="clipPath936">
      <path
         d="m 449.285,94.836 h 6.24 v -6.24 h -6.24 z"
         id="path934" />
    </clipPath>
    <clipPath
       clipPathUnits="userSpaceOnUse"
       id="clipPath948">
      <path
         d="m 472.207,96.869 h 10.309 V 86.56 h -10.309 z"
         id="path946" />
    </clipPath>
    <clipPath
       clipPathUnits="userSpaceOnUse"
       id="clipPath960">
      <path
         d="m 472.207,96.869 h 10.309 V 86.56 h -10.309 z"
         id="path958" />
    </clipPath>
    <clipPath
       clipPathUnits="userSpaceOnUse"
       id="clipPath972">
      <path
         d="m 494.767,99.09 h 14.749 V 84.341 h -14.749 z"
         id="path970" />
    </clipPath>
    <clipPath
       clipPathUnits="userSpaceOnUse"
       id="clipPath988">
      <path
         d="m 521.767,102.1 h 20.747 V 81.353 h -20.747 z"
         id="path986" />
    </clipPath>
    <clipPath
       clipPathUnits="userSpaceOnUse"
       id="clipPath1000">
      <path
         d="m 551.769,105.098 h 26.746 V 78.352 h -26.746 z"
         id="path998" />
    </clipPath>
    <clipPath
       clipPathUnits="userSpaceOnUse"
       id="clipPath1012">
      <path
         d="m 231.717,242.915 h 53.109 v -53.626 h -53.109 z"
         id="path1010" />
    </clipPath>
    <clipPath
       clipPathUnits="userSpaceOnUse"
       id="clipPath1030">
      <path
         d="m 231.717,242.915 h 53.109 v -53.626 h -53.109 z"
         id="path1028" />
    </clipPath>
    <clipPath
       clipPathUnits="userSpaceOnUse"
       id="clipPath1082">
      <path
         d="m 498.006,242.882 h 59.506 V 186.12 h -59.506 z"
         id="path1080" />
    </clipPath>
    <clipPath
       clipPathUnits="userSpaceOnUse"
       id="clipPath1096">
      <path
         d="m 498.006,242.882 h 59.506 V 186.12 h -59.506 z"
         id="path1094" />
    </clipPath>
  </defs>
  <sodipodi:namedview
     id="namedview4"
     pagecolor="#ffffff"
     bordercolor="#000000"
     borderopacity="0.25"
     inkscape:showpageshadow="2"
     inkscape:pageopacity="0.0"
     inkscape:pagecheckerboard="0"
     inkscape:deskcolor="#d1d1d1"
     showgrid="false"
     inkscape:zoom="1.7878788"
     inkscape:cx="311.82203"
     inkscape:cy="628.11865"
     inkscape:window-width="1470"
     inkscape:window-height="851"
     inkscape:window-x="0"
     inkscape:window-y="0"
     inkscape:window-maximized="1"
     inkscape:current-layer="g8"
     showguides="true">
    <sodipodi:guide
       position="299.59156,513.5712"
       orientation="0,-1"
       id="guide1978"
       inkscape:locked="false" />
    <sodipodi:guide
       position="294.31019,447.21774"
       orientation="0,-1"
       id="guide2141"
       inkscape:locked="false" />
  </sodipodi:namedview>
  <g
     id="g8"
     inkscape:groupmode="layer"
     inkscape:label="Amphenol_MIL_5015-3474748"
     transform="matrix(1.3333333,0,0,-1.3333333,0,1056)">
    <path
       d="m 235.60771,358.00121 h 44.64 v -43.2 h -44.64 z"
       style="fill:#ffffff;fill-opacity:1;fill-rule:nonzero;stroke:none"
       id="path476"
       sodipodi:nodetypes="ccccc" />
    <g
       id="g478"
       transform="translate(-205.51229,-135.31879)">
      <g
         id="g480"
         clip-path="url(#clipPath484)">
        <g
           id="g486"
           transform="scale(1.0022,-0.9978)">
          <path
             d="m 465.105,-482.738 c 0,1.645 -1.333,2.978 -2.977,2.978 -1.645,0 -2.978,-1.333 -2.978,-2.978 0,-1.644 1.333,-2.977 2.978,-2.977 1.644,0 2.977,1.333 2.977,2.977 z m -2.977,2.978 v -5.955 2.977 m -2.978,-0.033 h 5.955 -2.977 m 11.786,4.376 c 0,1.644 -1.333,2.977 -2.978,2.977 -1.644,0 -2.977,-1.333 -2.977,-2.977 0,-1.645 1.333,-2.978 2.977,-2.978 1.645,0 2.978,1.333 2.978,2.978 z m -2.978,2.977 v -5.955 2.978 m -2.977,-0.033 h 5.955 -2.978 m -14.888,0.033 c 0,1.644 -1.333,2.977 -2.977,2.977 -1.645,0 -2.978,-1.333 -2.978,-2.977 0,-1.645 1.333,-2.978 2.978,-2.978 1.644,0 2.977,1.333 2.977,2.978 z m -2.977,2.977 v -5.955 2.978 m -2.978,-0.033 h 5.955 -2.977 m 0.496,10.827 c 0,1.644 -1.333,2.977 -2.978,2.977 -1.644,0 -2.977,-1.333 -2.977,-2.977 0,-1.645 1.333,-2.978 2.977,-2.978 1.645,0 2.978,1.333 2.978,2.978 z m -2.978,2.977 v -5.955 2.978 m -2.977,-0.033 h 5.955 -2.978 m 26.303,0.033 c 0,1.644 -1.334,2.977 -2.978,2.977 -1.644,0 -2.978,-1.333 -2.978,-2.977 0,-1.645 1.334,-2.978 2.978,-2.978 1.644,0 2.978,1.333 2.978,2.978 z m -2.978,2.977 v -5.955 2.978 m -2.978,-0.033 h 5.956 -2.978 m -13.648,6.856 c 0,1.645 -1.333,2.978 -2.977,2.978 -1.645,0 -2.978,-1.333 -2.978,-2.978 0,-1.644 1.333,-2.977 2.978,-2.977 1.644,0 2.977,1.333 2.977,2.977 z m -2.977,2.978 v -5.955 2.977 m -2.978,-0.033 h 5.955 -2.977 m 13.151,0.033 c 0,1.645 -1.333,2.978 -2.978,2.978 -1.644,0 -2.977,-1.333 -2.977,-2.978 0,-1.644 1.333,-2.977 2.977,-2.977 1.645,0 2.978,1.333 2.978,2.977 z m -2.978,2.978 v -5.955 2.977 m -2.977,-0.033 h 5.955 -2.978 m -5.459,-15.723 c -2.673,0 -4.836,2.117 -4.942,4.764 h 9.885 c -0.107,-2.647 -2.269,-4.764 -4.943,-4.764 z"
             style="fill:none;stroke:#241f20;stroke-width:0.744;stroke-linecap:butt;stroke-linejoin:miter;stroke-miterlimit:4;stroke-dasharray:none;stroke-opacity:1"
             id="path488"
             sodipodi:nodetypes="sssssccccccsssssccccccsssssccccccsssssccccccsssssccccccsssssccccccsssssccccccsccs" />
        </g>
      </g>
    </g>
    <path
       d="m 262.45171,335.42621 h -9.908 c -0.002,-0.068 -0.019,-0.131 -0.019,-0.199 0,-2.735 2.226,-4.952 4.973,-4.952 2.747,0 4.974,2.217 4.974,4.952 0,0.068 -0.018,0.131 -0.02,0.199"
       style="fill:#241f20;fill-opacity:1;fill-rule:nonzero;stroke:none"
       id="path490" />
    <g
       id="g492"
       transform="matrix(1.0022,0,0,-0.9978,-205.51229,-135.31879)">
      <path
         d="m 466.946,-471.77 h -9.885 c -0.003,0.068 -0.02,0.131 -0.02,0.198 0,2.742 2.221,4.963 4.962,4.963 2.742,0 4.963,-2.221 4.963,-4.963 0,-0.067 -0.017,-0.13 -0.02,-0.198 z"
         style="fill:none;stroke:#241f20;stroke-width:0.744;stroke-linecap:butt;stroke-linejoin:miter;stroke-miterlimit:4;stroke-dasharray:none;stroke-opacity:1"
         id="path494" />
    </g>
    <text
       xml:space="preserve"
       transform="scale(1.0021834,-0.99782138)"
       style="font-variant:normal;font-weight:normal;font-size:4.21829px;font-family:Helvetica;-inkscape-font-specification:Helvetica;writing-mode:lr-tb;fill:#241f20;fill-opacity:1;fill-rule:nonzero;stroke:none;stroke-width:0.997821"
       id="text512"
       x="269.54947"
       y="-345.55655"><tspan
         x="269.54947"
         y="-345.55655"
         id="tspan496"
         style="stroke-width:0.997821">A</tspan><tspan
         x="272.77521"
         y="-332.90167"
         id="tspan498"
         style="stroke-width:0.997821">B</tspan><tspan
         x="266.57178"
         y="-321.98346"
         id="tspan500"
         style="stroke-width:0.997821">C</tspan><tspan
         x="246.22488"
         y="-320.49484"
         id="tspan502"
         style="stroke-width:0.997821">D</tspan><tspan
         x="238.78085"
         y="-334.14227"
         id="tspan504"
         style="stroke-width:0.997821">E</tspan><tspan
         x="242.99915"
         y="-346.05261"
         id="tspan506"
         style="stroke-width:0.997821">F</tspan><tspan
         x="251.43573"
         y="-351.01544"
         id="tspan508"
         style="stroke-width:0.997821">G</tspan><tspan
         x="262.85001"
         y="-334.63834"
         id="tspan510"
         style="stroke-width:0.997821">H</tspan></text>
    <text
       xml:space="preserve"
       transform="scale(1.0021834,-0.99782136)"
       style="font-variant:normal;font-weight:normal;font-size:4.21829px;font-family:Helvetica;-inkscape-font-specification:Helvetica;writing-mode:lr-tb;fill:#241f20;fill-opacity:1;fill-rule:nonzero;stroke:none;stroke-width:0.997821"
       id="text512-3-7"
       x="342.46756"
       y="-366.89224"><tspan
         sodipodi:role="line"
         id="tspan1981"
         x="325.00018"
         y="-366.89224"
         style="text-align:center;text-anchor:middle"><tspan
           x="325.00018"
           y="-366.89224"
           id="tspan496-6-0"
           style="text-align:center;text-anchor:middle;stroke-width:0.997821">Heater and Filaments cable</tspan></tspan><tspan
         sodipodi:role="line"
         id="tspan1983"
         x="325.00018"
         y="-361.61938"
         style="text-align:center;text-anchor:middle">Amphenol 18-12</tspan></text>
    <text
       xml:space="preserve"
       transform="scale(1.0021834,-0.99782136)"
       style="font-variant:normal;font-weight:normal;font-size:4.21829px;font-family:Helvetica;-inkscape-font-specification:Helvetica;writing-mode:lr-tb;fill:#241f20;fill-opacity:1;fill-rule:nonzero;stroke:none;stroke-width:0.997821"
       id="text512-3-7-9"
       x="274.67383"
       y="-366.89224"><tspan
         sodipodi:role="line"
         id="tspan1981-3"
         x="257.20645"
         y="-366.89224"
         style="text-align:center;text-anchor:middle"><tspan
           x="257.20645"
           y="-366.89224"
           id="tspan496-6-0-6"
           style="text-align:center;text-anchor:middle;stroke-width:0.997821">High Voltage cable</tspan></tspan><tspan
         sodipodi:role="line"
         id="tspan1983-0"
         x="257.20645"
         y="-361.61938"
         style="text-align:center;text-anchor:middle">Amphenol 18-8</tspan></text>
    <text
       xml:space="preserve"
       transform="scale(1.0021834,-0.99782136)"
       style="font-variant:normal;font-weight:normal;font-size:4.21829px;font-family:Helvetica;-inkscape-font-specification:Helvetica;writing-mode:lr-tb;fill:#241f20;fill-opacity:1;fill-rule:nonzero;stroke:none;stroke-width:0.997821"
       id="text512-3-7-9-3"
       x="292.54834"
       y="-388.96359"><tspan
         sodipodi:role="line"
         id="tspan1981-3-7"
         x="292.54834"
         y="-388.96359"
         style="font-style:normal;font-variant:normal;font-weight:normal;font-stretch:normal;font-size:6px;font-family:Helvetica;-inkscape-font-specification:'Helvetica, Normal';font-variant-ligatures:normal;font-variant-caps:normal;font-variant-numeric:normal;font-variant-east-asian:normal;text-align:center;text-anchor:middle">OSDEHA Umbilical Connectors</tspan><tspan
         sodipodi:role="line"
         id="tspan1983-0-9"
         x="292.54834"
         y="-381.46359"
         style="font-style:normal;font-variant:normal;font-weight:normal;font-stretch:normal;font-size:6px;font-family:Helvetica;-inkscape-font-specification:'Helvetica, Normal';font-variant-ligatures:normal;font-variant-caps:normal;font-variant-numeric:normal;font-variant-east-asian:normal;text-align:center;text-anchor:middle">Pinout, looking at male pins</tspan></text>
    <text
       xml:space="preserve"
       transform="scale(1.0021834,-0.99782136)"
       style="font-variant:normal;font-weight:normal;font-size:4.21829px;font-family:Helvetica;-inkscape-font-specification:Helvetica;writing-mode:lr-tb;fill:#241f20;fill-opacity:1;fill-rule:nonzero;stroke:none;stroke-width:0.997821"
       id="text512-3-1"
       x="239.40384"
       y="-307.60147"><tspan
         sodipodi:role="line"
         id="tspan1681"
         x="239.40384"
         y="-307.60147">A: B+</tspan><tspan
         sodipodi:role="line"
         x="239.40384"
         y="-302.32861"
         id="tspan1693">B: Stator bias</tspan><tspan
         sodipodi:role="line"
         x="239.40384"
         y="-297.05576"
         id="tspan1704">C+D+H: Chassis / PE</tspan><tspan
         sodipodi:role="line"
         x="239.40384"
         y="-291.7829"
         id="tspan1706">E: B2-</tspan><tspan
         sodipodi:role="line"
         x="239.40384"
         y="-286.51001"
         id="tspan1712">F: B-</tspan><tspan
         sodipodi:role="line"
         x="239.40384"
         y="-281.23715"
         id="tspan1721">G: GND</tspan><tspan
         sodipodi:role="line"
         x="239.40384"
         y="-275.96429"
         id="tspan1717">H: Chassis / PE</tspan><tspan
         sodipodi:role="line"
         x="239.40384"
         y="-270.69144"
         id="tspan1719" /><tspan
         sodipodi:role="line"
         x="239.40384"
         y="-265.41858"
         id="tspan1708" /></text>
    <text
       xml:space="preserve"
       transform="scale(1.0021834,-0.99782136)"
       style="font-variant:normal;font-weight:normal;font-size:4.21829px;font-family:Helvetica;-inkscape-font-specification:Helvetica;writing-mode:lr-tb;fill:#241f20;fill-opacity:1;fill-rule:nonzero;stroke:none;stroke-width:0.997821"
       id="text512-3-1-6"
       x="304.87369"
       y="-307.57605"><tspan
         sodipodi:role="line"
         id="tspan1681-2"
         x="304.87369"
         y="-307.57605">A: Heaters 6.3 VDC</tspan><tspan
         sodipodi:role="line"
         x="304.87369"
         y="-302.30319"
         id="tspan1693-6">B: Heaters 0 V (GND)</tspan><tspan
         sodipodi:role="line"
         x="304.87369"
         y="-297.03033"
         id="tspan1704-1">C: Filament raw DC+ (1)</tspan><tspan
         sodipodi:role="line"
         x="304.87369"
         y="-291.75748"
         id="tspan2269">D: Filament raw DC- (1)</tspan><tspan
         sodipodi:role="line"
         x="304.87369"
         y="-286.48459"
         id="tspan2273">E: Filament raw DC+ (2)</tspan><tspan
         sodipodi:role="line"
         x="304.87369"
         y="-281.21173"
         id="tspan1719-0">F: Filament raw DC- (2)</tspan><tspan
         sodipodi:role="line"
         x="304.87369"
         y="-275.93887"
         id="tspan2688">(C-F must be floating)</tspan><tspan
         sodipodi:role="line"
         x="304.87369"
         y="-270.66602"
         id="tspan1708-2" /></text>
    <g
       id="g514"
       transform="translate(-205.51229,-135.31879)">
      <g
         id="g516"
         clip-path="url(#clipPath520)">
        <g
           id="g522"
           transform="scale(1.0022,-0.9978)">
          <path
             d="m 482.599,-471.82 c 0,11.238 -9.11,20.347 -20.347,20.347 -11.238,0 -20.348,-9.109 -20.348,-20.347 0,-11.238 9.11,-20.347 20.348,-20.347 11.237,0 20.347,9.109 20.347,20.347 z"
             style="fill:none;stroke:#241f20;stroke-width:0.744;stroke-linecap:butt;stroke-linejoin:miter;stroke-miterlimit:4;stroke-dasharray:none;stroke-opacity:1"
             id="path524" />
        </g>
      </g>
    </g>
    <path
       d="m 302.88,358.2 h 44.88 V 315 h -44.88 z"
       style="fill:#ffffff;fill-opacity:1;fill-rule:nonzero;stroke:none"
       id="path670" />
    <g
       id="g672">
      <g
         id="g674"
         clip-path="url(#clipPath678)">
        <path
           d="m 328.238,346.408 c 0,-1.65 -1.337,-2.988 -2.984,-2.988 -1.648,0 -2.984,1.338 -2.984,2.988 0,1.649 1.336,2.987 2.984,2.987 1.647,0 2.984,-1.338 2.984,-2.987 z m -2.984,-2.988 v 5.975 -2.987 m -2.984,0.033 h 5.968 -2.984 m 2.984,-21.943 c 0,-1.651 -1.337,-2.988 -2.984,-2.988 -1.648,0 -2.984,1.337 -2.984,2.988 0,1.649 1.336,2.987 2.984,2.987 1.647,0 2.984,-1.338 2.984,-2.987 z m -2.984,-2.988 v 5.975 -2.987 m -2.984,0.033 h 5.968 -2.984 m 12.434,16.233 c 0,-1.65 -1.337,-2.987 -2.985,-2.987 -1.647,0 -2.984,1.337 -2.984,2.987 0,1.65 1.337,2.988 2.984,2.988 1.648,0 2.985,-1.338 2.985,-2.988 z m -2.985,-2.987 v 5.975 -2.988 m -2.984,0.033 h 5.969 -2.985 m 2.985,-10.158 c 0,-1.65 -1.337,-2.988 -2.985,-2.988 -1.648,0 -2.984,1.338 -2.984,2.988 0,1.65 1.336,2.988 2.984,2.988 1.648,0 2.985,-1.338 2.985,-2.988 z m -2.985,-2.988 v 5.976 -2.988 m -2.984,0.033 h 5.969 -2.985 m -15.914,10.092 c 0,-1.65 -1.337,-2.987 -2.985,-2.987 -1.648,0 -2.984,1.337 -2.984,2.987 0,1.65 1.336,2.988 2.984,2.988 1.648,0 2.985,-1.338 2.985,-2.988 z m -2.985,-2.987 v 5.975 -2.988 m -2.984,0.033 h 5.969 -2.985 m 2.985,-10.158 c 0,-1.65 -1.337,-2.988 -2.985,-2.988 -1.648,0 -2.984,1.338 -2.984,2.988 0,1.65 1.336,2.988 2.984,2.988 1.648,0 2.985,-1.338 2.985,-2.988 z m -2.985,-2.988 v 5.976 -2.988 m -2.984,0.033 h 5.969 -2.985"
           style="fill:none;stroke:#241f20;stroke-width:0.746;stroke-linecap:butt;stroke-linejoin:miter;stroke-miterlimit:4;stroke-dasharray:none;stroke-opacity:1"
           id="path680"
           sodipodi:nodetypes="sssssccccccsssssccccccsssssccccccsssssccccccsssssccccccssssscccccc" />
      </g>
    </g>
    <text
       xml:space="preserve"
       transform="matrix(0.99879507,0,0,-1,338.8478,343.4201)"
       style="font-variant:normal;font-weight:normal;font-size:4.2326px;font-family:Helvetica;-inkscape-font-specification:Helvetica;writing-mode:lr-tb;fill:#241f20;fill-opacity:1;fill-rule:nonzero;stroke:none"
       id="text694"><tspan
         x="0"
         y="0"
         id="tspan682">A</tspan><tspan
         x="0"
         y="18.258167"
         id="tspan684">B</tspan><tspan
         x="-18.707245"
         y="25.727859"
         id="tspan686">C</tspan><tspan
         x="-29.271393"
         y="18.258167"
         id="tspan688">D</tspan><tspan
         x="-29.154995"
         y="0"
         id="tspan690">E</tspan><tspan
         x="-18.472759"
         y="-5.8092437"
         id="tspan692">F</tspan></text>
    <g
       id="g696">
      <g
         id="g698"
         clip-path="url(#clipPath702)">
        <path
           d="m 345.645,335.785 c 0,-11.277 -9.13,-20.417 -20.392,-20.417 -11.261,0 -20.391,9.14 -20.391,20.417 0,11.275 9.13,20.416 20.391,20.416 11.262,0 20.392,-9.141 20.392,-20.416 z"
           style="fill:none;stroke:#241f20;stroke-width:0.746;stroke-linecap:butt;stroke-linejoin:miter;stroke-miterlimit:4;stroke-dasharray:none;stroke-opacity:1"
           id="path704" />
      </g>
    </g>
  </g>
</svg>
